<?xml version="1.0" encoding="utf-8"?>
<svg xmlns="http://www.w3.org/2000/svg" viewBox="0 0 600 400">
  <g style="isolation:isolate">
    <g>
      <path d="M555.89,343.76H46.16S16,261.49,52.38,234.61c42.43-31.33,77.3,5.27,89.85-7.21,16.62-16.54,14.08-134.68,120.39-134.68,107,0,105.4,93.86,125.15,92.08,45.57-4.12,62-56.17,122.91-32C596.74,186.89,555.89,343.76,555.89,343.76Z" fill="#cfecff" opacity=".5"/>
      <path d="M38,345.32c0,9.55,117.21,17.3,261.79,17.3s261.8-7.75,261.8-17.3S444.33,328,299.75,328,38,335.77,38,345.32Z" fill="#cdecf1"/>
      <path d="M68.94,344.6s10.1-18.5,3.39-20.85c-4.43-1.55-5.87,15.74-5.87,15.74s-.39-19.17-6.27-16.72c-4.44,1.85,1.49,15.69,1.49,15.69s-6.44-5.22-7.25-1.94c-1.29,5.21,6.12,8.17,6.12,8.17Z" fill="#acdfe7"/>
      <path d="M66.86,344.62l4.89-15.32a.15.15,0,0,0-.1-.2.16.16,0,0,0-.21.1l-4.92,15.43Z" fill="#e8f6f9"/>
      <path d="M65.59,344.64l-3.5-16.71a.16.16,0,0,0-.19-.12.16.16,0,0,0-.13.19l3.49,16.64Z" fill="#e8f6f9"/>
      <path d="M63.79,344.65l-6.66-5.72a.16.16,0,0,0-.23,0,.17.17,0,0,0,0,.23l6.38,5.49Z" fill="#e8f6f9"/>
      <path d="M533.33,344.69s-8.31-12.31-3-17c3.24-2.89,4.83,6.37,4.83,6.37S537,316.36,543,320.09c2.92,1.82-3.23,18.12-3.23,18.12s4.38-8.48,7.83-6.15c5.58,3.76-7.71,12.51-7.71,12.51Z" fill="#acdfe7"/>
      <path d="M536.49,344.63l4.3-20a.22.22,0,0,0-.16-.24.21.21,0,0,0-.24.16l-4.32,20.12Z" fill="#e8f6f9"/>
      <path d="M538.78,344.59l7.91-9.61a.21.21,0,1,0-.32-.26l-8.13,9.88Z" fill="#e8f6f9"/>
      <path d="M535,344.66,531.78,330a.2.2,0,0,0-.25-.16.22.22,0,0,0-.15.25l3.23,14.58Z" fill="#e8f6f9"/>
      <path d="M193.3,288.75a2.28,2.28,0,0,1-2.28-2.28V49.8a2.62,2.62,0,0,1,2.61-2.62H426a2.62,2.62,0,0,1,2.61,2.62V286.47a2.28,2.28,0,0,1-2.28,2.28Z" fill="#f3f8fd" opacity=".7"/>
      <path d="M191,256.45c1.72-16.17,10.53-34.1,31-38.79,13-3,25.21,10.52,29.61,17,8.26,12.09,22.22,40.18,65.91,31.08,31.05-6.47,55.06-29.29,68.38-54.87,12-23.08,20.49-69.37,1-89.87-13.68-14.35-44.57-20.61-65.92-3.22-9.91,8.07-17.26,6.85-23.52,5.09-8-2.26-19.26-10.17-25.15-26.19C266.88,81.91,268.84,70,268.66,57l-14.08-.07c-1.46,39.13,4.4,59.34,33.1,84.53,19.4,17,11.31,73.54-22.41,69.43-12-1.47-14.77-20.75-36.18-19.58-18.22,1-29.9,13.74-38.09,24.12Z" fill="#f8b1c0"/>
      <path d="M301.38,264c-26.38,0-37.54-16.8-44.67-28.07-5.25-8.31,2-20.93,10.08-20.12,13.81,1.37,25.37-8.42,31.16-23.81,6.43-17.06,5.4-24.72,7.8-38.68,2.14-12.5,8.36-24.71,19.25-32.91,12-9,22.6-8.93,29.69-8.93,11.45,0,22.54,4.46,29.67,11.94,18,18.85,10.49,62.71-1.54,85.82-14.37,27.6-39,47.43-66,53A76.54,76.54,0,0,1,301.38,264Z" fill="#f8b1c0" opacity=".3" style="mix-blend-mode:multiply"/>
      <path d="M299.46,187.71c-.45,1.36-.94,2.76-1.51,4.26-5.79,15.39-17.35,25.18-31.16,23.81-8.12-.81-15.33,11.81-10.08,20.12C263.84,247.17,275,264,301.38,264a76.54,76.54,0,0,0,15.46-1.71c27-5.62,51.61-25.45,66-53a107.28,107.28,0,0,0,8.1-21.5s-1.45,9.65-49.92,0C314.92,182.51,299.46,187.71,299.46,187.71Z" fill="#f8b1c0"/>
      <path d="M299.46,187.71c-.45,1.36-.94,2.76-1.51,4.26-5.79,15.39-17.35,25.18-31.16,23.81-8.12-.81-15.33,11.81-10.08,20.12C263.84,247.17,275,264,301.38,264a76.54,76.54,0,0,0,15.46-1.71c27-5.62,51.61-25.45,66-53a107.28,107.28,0,0,0,8.1-21.5s-3.93-18.12-49.92,0C309.61,200.07,299.46,187.71,299.46,187.71Z" fill="#f6c4cf"/>
      <path d="M326,207.58a2.05,2.05,0,1,1-2.05-2.05A2.05,2.05,0,0,1,326,207.58Z" fill="#f8b1c0"/>
      <path d="M346.43,199.92a1.4,1.4,0,1,1-1.4-1.4A1.39,1.39,0,0,1,346.43,199.92Z" fill="#f8b1c0"/>
      <path d="M361.59,214a1.58,1.58,0,1,1-1.57-1.58A1.57,1.57,0,0,1,361.59,214Z" fill="#f8b1c0"/>
      <path d="M374.4,205.53a2.61,2.61,0,1,1-2.61-2.61A2.61,2.61,0,0,1,374.4,205.53Z" fill="#f8b1c0"/>
      <path d="M298.63,216.11a1.22,1.22,0,1,1-1.22-1.22A1.22,1.22,0,0,1,298.63,216.11Z" fill="#f8b1c0"/>
      <path d="M311.28,202.06a3,3,0,1,1-3-3A3,3,0,0,1,311.28,202.06Z" fill="#f8b1c0"/>
      <path d="M321.6,162.21a1.66,1.66,0,1,1-1.66-1.66A1.66,1.66,0,0,1,321.6,162.21Z" fill="#f6c4cf"/>
      <path d="M350.42,156.46a1.81,1.81,0,1,1-1.81-1.81A1.81,1.81,0,0,1,350.42,156.46Z" fill="#f6c4cf"/>
      <path d="M346.81,175.42a3.18,3.18,0,1,1-3.18-3.17A3.18,3.18,0,0,1,346.81,175.42Z" fill="#f6c4cf"/>
      <path d="M374.1,172.25a1.27,1.27,0,1,1-1.27-1.27A1.27,1.27,0,0,1,374.1,172.25Z" fill="#f6c4cf"/>
      <path d="M337.25,134.21a2.09,2.09,0,1,1-2.09-2.09A2.09,2.09,0,0,1,337.25,134.21Z" fill="#f6c4cf"/>
      <path d="M426,46.07H193.63a3.73,3.73,0,0,0-3.73,3.73V286.47a3.4,3.4,0,0,0,3.4,3.4h233a3.4,3.4,0,0,0,3.4-3.4V49.8A3.73,3.73,0,0,0,426,46.07Zm1.5,240.4a1.18,1.18,0,0,1-1.17,1.17h-233a1.17,1.17,0,0,1-1.16-1.17V49.8a1.5,1.5,0,0,1,1.49-1.5H426a1.51,1.51,0,0,1,1.5,1.5Z" fill="#c8dff8"/>
      <path d="M193.63,46.07H426a3.73,3.73,0,0,1,3.73,3.73v8.56H189.9V49.8A3.73,3.73,0,0,1,193.63,46.07Z" fill="#9bc5f2"/>
      <path d="M211.38,52.23A2.66,2.66,0,1,0,214,49.58,2.67,2.67,0,0,0,211.38,52.23Z" fill="#ffe2b5"/>
      <path d="M202.64,52.21a2.66,2.66,0,1,0,2.65-2.65A2.65,2.65,0,0,0,202.64,52.21Z" fill="#f6c4cf"/>
      <path d="M193.89,52.19a2.66,2.66,0,1,0,2.65-2.65A2.66,2.66,0,0,0,193.89,52.19Z" fill="#acdfe7"/>
      <path d="M376.93,243.83A21.8,21.8,0,1,1,355.13,222,21.79,21.79,0,0,1,376.93,243.83Z" fill="#bfdeff"/>
      <path d="M355.13,266a22.2,22.2,0,1,1,22.2-22.2A22.22,22.22,0,0,1,355.13,266Zm0-43.59a21.39,21.39,0,1,0,21.39,21.39A21.41,21.41,0,0,0,355.13,222.44Z" fill="#4c749f"/>
      <path d="M368.66,235.13a2.78,2.78,0,0,0-1.78,0c-.67.22-1,.71-1.55,1.08-1.56,1-3.06-1-4-1.92a5.62,5.62,0,0,0-1.42-1c2-.27,4.09,1.17,6.06.12.24-.13,0-.48-.23-.35-1.9,1-4-.56-6-.2a3.72,3.72,0,0,0-.52.16,3.92,3.92,0,0,0-3.92.53,2.22,2.22,0,0,0-.38-.71c.53-.54,1.53-.63,2.15-1a3.48,3.48,0,0,0,.78-.69c.65.18,1.27.51,1.92.68a4.06,4.06,0,0,0,2.81-.41c.95-.42,2.08-.91,3-.26.23.16.42-.22.2-.37-1-.7-2.25-.26-3.27.18a4.13,4.13,0,0,1-2.42.51,16.15,16.15,0,0,1-1.92-.67l-.07,0c.25-.35.47-.72.7-1.09,1.12-1.81,3.31-3,5.36-1.93a.21.21,0,0,0,.19-.38,4.42,4.42,0,0,0-5.43,1.4c-.48.6-.81,1.3-1.27,1.89a3.09,3.09,0,0,0-2.67.73,2.54,2.54,0,0,0-.66,1,5,5,0,0,0-2.76-.46,9.83,9.83,0,0,0-3.17.64,6.76,6.76,0,0,0-2.41,1.54c-.83.85-1.3,2-2.08,2.87a3.29,3.29,0,0,1-1.41,1,5.36,5.36,0,0,1-2.15,0,3.43,3.43,0,0,0-2.75.59,1.64,1.64,0,0,0-.3,2.22,3.35,3.35,0,0,0,2.41,1.08,6.37,6.37,0,0,0,2.78-.37,5.51,5.51,0,0,0,2-1.11,4.6,4.6,0,0,0,.77-.89c.06-.08.13-.15.18-.23.83-1.1,1.5-2.23,2.82-2.78A6.47,6.47,0,0,1,351,236a8.09,8.09,0,0,0,2.09.07,3.36,3.36,0,0,0,1.95-1,2.9,2.9,0,0,1,2.61,1.07c.67.78,1.06,1.88,2.11,2.24s2.26-.24,3.36-.24a5.14,5.14,0,0,1,3.64,1.54c.19.2.48-.12.28-.31a5.49,5.49,0,0,0-3.42-1.63,6.65,6.65,0,0,0-1.89.15,2.65,2.65,0,0,1-2.45-.28,11.32,11.32,0,0,1-1.17-1.58,3.84,3.84,0,0,0-1.38-1.15,3,3,0,0,0-1.43-.26,1,1,0,0,0,0-.1,1.55,1.55,0,0,0,0-.21,2.55,2.55,0,0,0,.92.17,8.87,8.87,0,0,0,2.93-1h0a10,10,0,0,1,3.07,2.41,3,3,0,0,0,2.83.88c.55-.18.85-.65,1.31-1a2.42,2.42,0,0,1,2.14-.25C368.83,235.63,368.92,235.21,368.66,235.13Zm-13.38-3.41a2.69,2.69,0,0,1,1.46-.69,2,2,0,0,1,.6,0,3.4,3.4,0,0,1-.58.47,14.4,14.4,0,0,0-2,1A2.49,2.49,0,0,1,355.28,231.72Zm.26,2.21a3.51,3.51,0,0,1,3.06-.66C357.59,233.71,356.4,234.27,355.54,233.93Z" fill="#4c749f"/>
      <path d="M353.38,234.3a.38.38,0,0,0-.24-.17,2.47,2.47,0,0,0-.29-.06.69.69,0,0,0-.6.18.42.42,0,0,0,0,.57.58.58,0,0,0,.54.11.81.81,0,0,0,.34-.08.51.51,0,0,0,.24-.22A.35.35,0,0,0,353.38,234.3Z" fill="#ffe2b5"/>
      <path d="M354.08,233.13a.14.14,0,0,0,0-.06.05.05,0,0,0,0,0,.09.09,0,0,0-.06,0h-.16l-.06,0-.08.05v0a.2.2,0,0,0-.05.09.18.18,0,0,0,.06.17l0,0,.05,0h0a.34.34,0,0,0,.1,0l.06,0,0,0,0,0v0l0,0a0,0,0,0,0,0,0s0,0,0,0A.25.25,0,0,0,354.08,233.13Z" fill="#ffe2b5"/>
      <path d="M343.22,238.8a.32.32,0,0,0,0-.09.56.56,0,0,0-.26-.45.44.44,0,0,0-.57.05.38.38,0,0,0-.09.29s0,0,0,0a.59.59,0,0,0,.14.31.88.88,0,0,0,.25.18.35.35,0,0,0,.34,0,.24.24,0,0,0,.08-.06A.27.27,0,0,0,343.22,238.8Z" fill="#ffe2b5"/>
      <path d="M343.66,237.73a.11.11,0,0,0,0,0,.35.35,0,0,0,0-.08h0l0,0,0,0h-.06l-.11,0h0l0,0s0,0,0,0,0,0,0,0h0l0,0h0v0a.06.06,0,0,0,0,0h0v0h0a.13.13,0,0,0,0,.06.12.12,0,0,0,.05.09l0,0a.08.08,0,0,0,.07,0h.08l.08,0,.06,0h0l0,0v0a.05.05,0,0,0,0,0h0l0-.05h0v-.07Z" fill="#ffe2b5"/>
      <path d="M346.52,236.56a.25.25,0,0,0-.32-.05,1.68,1.68,0,0,0-.45.3.41.41,0,0,0-.19.24.22.22,0,0,0,.2.26.45.45,0,0,0,.29-.12l.1-.1.29-.21a.87.87,0,0,0,.09-.11A.2.2,0,0,0,346.52,236.56Z" fill="#ffe2b5"/>
      <path d="M347.33,235.46l0-.05a.13.13,0,0,0-.07-.06s0,0-.05,0h-.06l-.12,0,0,0,0,0,0,0,0,.1a.14.14,0,0,0,0,.11s0,0,0,0l.05,0h0l0,0,.08,0a.14.14,0,0,0,.09,0,.18.18,0,0,0,.08-.09.29.29,0,0,0,0-.09A.24.24,0,0,0,347.33,235.46Z" fill="#ffe2b5"/>
      <path d="M346.58,235.15a.35.35,0,0,0-.13-.14.2.2,0,0,0-.25,0l-.06.11h0a.15.15,0,0,0,0,.1v0a.57.57,0,0,0,0,.13.29.29,0,0,0,.3.22.27.27,0,0,0,.24-.29A.4.4,0,0,0,346.58,235.15Z" fill="#ffe2b5"/>
      <path d="M339,240.92a.71.71,0,0,0-.21-.28,1.14,1.14,0,0,0-.25-.18l-.13-.05a.16.16,0,0,0-.09,0,.32.32,0,0,0-.31.19.44.44,0,0,0,0,.37.75.75,0,0,0,.24.23.91.91,0,0,0,.3.14h0a.29.29,0,0,0,.33-.06A.31.31,0,0,0,339,240.92Z" fill="#ffe2b5"/>
      <path d="M340.24,240.68a.31.31,0,0,0-.15-.1.43.43,0,0,0-.16,0,.34.34,0,0,0-.14.09.3.3,0,0,0,0,.08s0,0,0,0h0a.15.15,0,0,0-.09.18.28.28,0,0,0,.27.18.37.37,0,0,0,.15,0l.13-.07a.25.25,0,0,0,.1-.15A.21.21,0,0,0,340.24,240.68Z" fill="#ffe2b5"/>
      <path d="M340,239.58a.29.29,0,0,0-.25-.28.55.55,0,0,0-.55.34.34.34,0,0,0,0,.2.31.31,0,0,0,.09.18.38.38,0,0,0,.3.1.48.48,0,0,0,.29-.17.49.49,0,0,0,.14-.3A.19.19,0,0,0,340,239.58Z" fill="#ffe2b5"/>
      <path d="M343.41,240.68a.27.27,0,0,0-.07-.08.3.3,0,0,0-.26,0,.25.25,0,0,0-.12.08.21.21,0,0,0-.07.13s0,0,0,0h0a.14.14,0,0,0,0,.11s0,.07.06.08H343l.09,0a.3.3,0,0,0,.11-.06.66.66,0,0,0,.16-.17A.14.14,0,0,0,343.41,240.68Z" fill="#ffe2b5"/>
      <path d="M350.48,235.14a.58.58,0,0,0-.44-.3,1.19,1.19,0,0,0-.53,0,.84.84,0,0,0-.44.27.37.37,0,0,0,0,.52l.06,0a.18.18,0,0,0,.07.05h.11a1.5,1.5,0,0,0,.29.06.78.78,0,0,0,.3-.07,1.48,1.48,0,0,0,.35-.13A.36.36,0,0,0,350.48,235.14Z" fill="#ffe2b5"/>
      <path d="M351.31,233.68a.27.27,0,0,0,0-.12l0,0,0,0-.11-.05a.28.28,0,0,0-.32.21.06.06,0,0,0,0,0v.05a.42.42,0,0,0,0,.12.26.26,0,0,0,.09.09.19.19,0,0,0,.13,0h.06l.06,0,0,0,0,0,0,0s0,0,0,0h0s0,0,0,0A.27.27,0,0,0,351.31,233.68Z" fill="#ffe2b5"/>
      <path d="M350,232.84a.33.33,0,0,0-.25-.22.51.51,0,0,0-.32,0,.76.76,0,0,0-.28.15.25.25,0,0,0-.05.33h0l0,.05a.33.33,0,0,0,.15.11.53.53,0,0,0,.33,0C349.8,233.24,350.06,233.07,350,232.84Z" fill="#ffe2b5"/>
      <path d="M349.53,246.9a1.8,1.8,0,0,1,1.61.19c.34.23.57.58,1,.72a2.23,2.23,0,0,0,2.12-.66,7.56,7.56,0,0,1,2.31-1.81h0a6.74,6.74,0,0,0,2.19.73,2.22,2.22,0,0,0,.69-.13l0,.16a.21.21,0,0,1,0,.07,2.22,2.22,0,0,0-1.07.2,2.77,2.77,0,0,0-1,.86,8.41,8.41,0,0,1-.88,1.18,2,2,0,0,1-1.83.21,5.24,5.24,0,0,0-1.42-.11,4.17,4.17,0,0,0-2.57,1.22c-.15.15.07.38.21.24a3.85,3.85,0,0,1,2.73-1.16c.83,0,1.7.46,2.52.18s1.08-1.09,1.58-1.68a2.19,2.19,0,0,1,2-.8,2.53,2.53,0,0,0,1.46.76,6.34,6.34,0,0,0,1.57-.05,4.73,4.73,0,0,1,2,.42,5.34,5.34,0,0,1,2.11,2.08l.14.17a3.27,3.27,0,0,0,.57.67,4.38,4.38,0,0,0,1.51.83,4.91,4.91,0,0,0,2.09.28,2.55,2.55,0,0,0,1.8-.82,1.22,1.22,0,0,0-.22-1.66,2.58,2.58,0,0,0-2.06-.44,4.41,4.41,0,0,1-1.62,0A2.48,2.48,0,0,1,368,248c-.58-.68-.94-1.52-1.56-2.15a5.1,5.1,0,0,0-1.81-1.16,7.42,7.42,0,0,0-2.38-.48,3.65,3.65,0,0,0-2.06.35,1.9,1.9,0,0,0-.5-.73,2.33,2.33,0,0,0-2-.55c-.34-.44-.59-1-.95-1.42a3.32,3.32,0,0,0-4.08-1c-.18.09,0,.37.15.28a3.12,3.12,0,0,1,4,1.45,9.35,9.35,0,0,0,.52.81l-.05,0a12.77,12.77,0,0,1-1.43.5,3,3,0,0,1-1.82-.38,2.53,2.53,0,0,0-2.45-.14c-.17.11,0,.4.14.28a2.34,2.34,0,0,1,2.28.19,3,3,0,0,0,2.1.32c.49-.14.95-.38,1.44-.52a2.69,2.69,0,0,0,.59.52c.46.3,1.21.37,1.61.78a1.52,1.52,0,0,0-.29.53,3,3,0,0,0-2.93-.41,2.73,2.73,0,0,0-.4-.11c-1.48-.27-3,.9-4.47.15-.18-.1-.36.17-.18.26,1.48.78,3-.3,4.54-.09a4,4,0,0,0-1.06.72c-.73.69-1.86,2.22-3,1.44-.42-.28-.66-.65-1.17-.81a2.09,2.09,0,0,0-1.33,0C349.27,246.65,349.33,247,349.53,246.9Zm10.37-2.31a12.44,12.44,0,0,0-1.52-.71,3,3,0,0,1-.43-.36,2.26,2.26,0,0,1,.45,0,2,2,0,0,1,1.09.51A1.69,1.69,0,0,1,359.9,244.59Zm-2.9.61a2.65,2.65,0,0,1,2.3.49C358.65,246,357.76,245.53,357,245.2Z" fill="#4c749f"/>
      <path d="M360.91,246a.34.34,0,0,1,.18-.13l.22,0a.5.5,0,0,1,.45.14.3.3,0,0,1,0,.42.43.43,0,0,1-.41.08.57.57,0,0,1-.25-.06.46.46,0,0,1-.18-.16A.28.28,0,0,1,360.91,246Z" fill="#ffe2b5"/>
      <path d="M360.39,245.09s0,0,0,0l0,0s0,0,0,0h.12l.05,0,.05,0s0,0,0,0a.15.15,0,0,1,0,.07.14.14,0,0,1,0,.12l0,0h-.12l0,0,0,0v0a0,0,0,0,1,0,0s0,0,0,0a0,0,0,0,1,0,0l0,0A.43.43,0,0,1,360.39,245.09Z" fill="#ffe2b5"/>
      <path d="M368.64,249.51l.06.05a.3.3,0,0,0,.26,0,.46.46,0,0,0,.18-.13.36.36,0,0,0,.11-.23v0a.31.31,0,0,0-.07-.21.32.32,0,0,0-.43,0,.45.45,0,0,0-.2.33.2.2,0,0,0,0,.07A.19.19,0,0,0,368.64,249.51Z" fill="#ffe2b5"/>
      <path d="M368.2,248.55v0h0l0,0h0s0,0,0,0h0l0,0h0l0,0,.05,0h.12l0,0a.16.16,0,0,0,0-.07.06.06,0,0,0,0,0h0a0,0,0,0,0,0,0v0h0a0,0,0,0,0,0,0h0l0,0,0,0,0,0h-.14l0,0,0,0h0a.09.09,0,0,0,0,.06,0,0,0,0,0,0,0Z" fill="#ffe2b5"/>
      <path d="M366.06,247.66c.05-.08.16-.07.24,0a1.3,1.3,0,0,1,.33.23c.06.05.13.1.14.18a.16.16,0,0,1-.14.2.37.37,0,0,1-.22-.1l-.08-.07-.21-.16a.27.27,0,0,1-.07-.08A.15.15,0,0,1,366.06,247.66Z" fill="#ffe2b5"/>
      <path d="M365.45,246.93a.14.14,0,0,0,0,.06.13.13,0,0,0,0,.07.11.11,0,0,0,.07,0l.07,0,0,0h0l0,0,0,0a.11.11,0,0,0,0-.08s0,0,0-.07l0,0,0,0,0,0-.09,0h-.09l0,.05s0,0,0,0A.14.14,0,0,0,365.45,246.93Z" fill="#ffe2b5"/>
      <path d="M366,246.76a.21.21,0,0,0,.18.22.23.23,0,0,0,.23-.16.17.17,0,0,0,0-.1v0a.11.11,0,0,0,0-.07h0l0-.08a.15.15,0,0,0-.19,0,.36.36,0,0,0-.1.11A.3.3,0,0,0,366,246.76Z" fill="#ffe2b5"/>
      <path d="M371.73,250.93a.62.62,0,0,1,.15-.21.8.8,0,0,1,.19-.13l.1,0,.06,0a.22.22,0,0,1,.23.14.34.34,0,0,1,0,.28.72.72,0,0,1-.18.17,1,1,0,0,1-.23.11h0a.26.26,0,0,1-.25,0A.25.25,0,0,1,371.73,250.93Z" fill="#ffe2b5"/>
      <path d="M370.76,250.75a.24.24,0,0,1,.12-.07.24.24,0,0,1,.12,0,.18.18,0,0,1,.1.07s0,0,0,.05v0h0a.1.1,0,0,1,.06.13.2.2,0,0,1-.2.14l-.11,0-.1,0a.5.5,0,0,1-.08-.12A.2.2,0,0,1,370.76,250.75Z" fill="#ffe2b5"/>
      <path d="M370.93,249.93a.22.22,0,0,1,.18-.21.43.43,0,0,1,.42.25.4.4,0,0,1,0,.15.23.23,0,0,1-.07.14.26.26,0,0,1-.22.07.34.34,0,0,1-.22-.13.46.46,0,0,1-.11-.22S370.93,250,370.93,249.93Z" fill="#ffe2b5"/>
      <path d="M368.39,250.75l.05-.06a.28.28,0,0,1,.2,0l.09.06a.24.24,0,0,1,0,.1v0h0a.11.11,0,0,1,0,.08.09.09,0,0,1-.06.06h-.08l-.06,0-.08,0a.3.3,0,0,1-.12-.13A.11.11,0,0,1,368.39,250.75Z" fill="#ffe2b5"/>
      <path d="M363.23,246.94a.79.79,0,0,0,.27.1.54.54,0,0,0,.22.05.85.85,0,0,0,.22,0H364a.1.1,0,0,0,.05,0l.05,0a.28.28,0,0,0,0-.39.61.61,0,0,0-.33-.19.9.9,0,0,0-.4,0,.45.45,0,0,0-.33.23A.26.26,0,0,0,363.23,246.94Z" fill="#ffe2b5"/>
      <path d="M362.47,245.5a.19.19,0,0,1,0-.08v0l0,0a.26.26,0,0,1,.09-.05.21.21,0,0,1,.15,0,.2.2,0,0,1,.09.13s0,0,0,0v0a.36.36,0,0,1,0,.09s0,.05-.06.07a.18.18,0,0,1-.1,0h-.05l0,0h0l0,0v0h0l0,0A.2.2,0,0,1,362.47,245.5Z" fill="#ffe2b5"/>
      <path d="M363.45,244.87c0-.08.1-.13.18-.16a.4.4,0,0,1,.24,0,.61.61,0,0,1,.21.11.2.2,0,0,1,0,.25h0l0,0a.21.21,0,0,1-.11.08.31.31,0,0,1-.25,0C363.6,245.18,363.4,245.05,363.45,244.87Z" fill="#ffe2b5"/>
      <path d="M361.07,257.68a1.61,1.61,0,0,0-1-.2,3.55,3.55,0,0,0-.95.43c-1,.4-1.55-.85-2-1.45a3,3,0,0,0-.67-.66c1.12.06,2.09,1.05,3.26.68.14,0,.05-.26-.09-.21-1.13.35-2.1-.71-3.2-.72l-.31,0a2.15,2.15,0,0,0-2.16-.11,1.3,1.3,0,0,0-.14-.42c.34-.24.89-.19,1.27-.34a2.18,2.18,0,0,0,.49-.29c.33.16.63.4,1,.56a2.26,2.26,0,0,0,1.56.07,1.69,1.69,0,0,1,1.66.17c.11.1.25-.08.15-.19a1.84,1.84,0,0,0-1.79-.23,2.18,2.18,0,0,1-1.36,0,9.38,9.38,0,0,1-1-.56l0,0c.17-.16.33-.34.49-.51a2.27,2.27,0,0,1,3.09-.5.11.11,0,0,0,.14-.18,2.43,2.43,0,0,0-3.08.19c-.32.28-.57.62-.88.9a1.68,1.68,0,0,0-1.51.12,1.35,1.35,0,0,0-.46.46,2.67,2.67,0,0,0-1.44-.53,5.26,5.26,0,0,0-1.77,0,3.59,3.59,0,0,0-1.46.58c-.54.38-.91.94-1.42,1.34a1.8,1.8,0,0,1-.87.41,3.26,3.26,0,0,1-1.16-.2,1.9,1.9,0,0,0-1.55,0,.91.91,0,0,0-.39,1.17,1.89,1.89,0,0,0,1.19.83,3.5,3.5,0,0,0,1.54.08,3.09,3.09,0,0,0,1.2-.39,2.62,2.62,0,0,0,.51-.41l.12-.1a4,4,0,0,1,1.81-1.21,3.35,3.35,0,0,1,1.51,0,4.23,4.23,0,0,0,1.12.25,1.91,1.91,0,0,0,1.16-.35,1.6,1.6,0,0,1,1.3.84c.28.5.38,1.13.91,1.43s1.24.1,1.84.21a2.85,2.85,0,0,1,1.81,1.21c.08.12.27,0,.18-.14a3,3,0,0,0-1.68-1.23,3.29,3.29,0,0,0-1-.11,1.44,1.44,0,0,1-1.29-.41,5.43,5.43,0,0,1-.47-1,2.2,2.2,0,0,0-.63-.76,1.56,1.56,0,0,0-.75-.28l0,0a.56.56,0,0,0,0-.12,1.34,1.34,0,0,0,.48.19,5.08,5.08,0,0,0,1.68-.22h0a5.48,5.48,0,0,1,1.41,1.61,1.64,1.64,0,0,0,1.44.77,3.49,3.49,0,0,0,.8-.39,1.32,1.32,0,0,1,1.19.09C361.11,258,361.2,257.75,361.07,257.68Zm-6.88-3.21a1.57,1.57,0,0,1,.85-.22,1.21,1.21,0,0,1,.33.07,2,2,0,0,1-.36.19,8.63,8.63,0,0,0-1.19.31A1.34,1.34,0,0,1,354.19,254.47Zm-.09,1.23a1.93,1.93,0,0,1,1.72,0A2.5,2.5,0,0,1,354.1,255.7Z" fill="#4c749f"/>
      <path d="M352.9,255.68a.26.26,0,0,0-.11-.12l-.16-.06a.37.37,0,0,0-.34,0,.22.22,0,0,0,0,.31.31.31,0,0,0,.28.11.62.62,0,0,0,.19,0,.31.31,0,0,0,.15-.1A.17.17,0,0,0,352.9,255.68Z" fill="#ffe2b5"/>
      <path d="M353.39,255.11v0s0,0,0,0l0,0h-.12l-.05,0h0l0,0a.12.12,0,0,0,0,.1l0,0h.11l0,0h0a0,0,0,0,1,0,0,0,0,0,0,0,0,0l0,0S353.39,255.13,353.39,255.11Z" fill="#ffe2b5"/>
      <path d="M347,257.07a.07.07,0,0,0,0-.05.3.3,0,0,0-.09-.27.24.24,0,0,0-.31,0,.17.17,0,0,0-.08.14v0a.22.22,0,0,0,.05.17.47.47,0,0,0,.11.13.19.19,0,0,0,.19,0l.05,0A.13.13,0,0,0,347,257.07Z" fill="#ffe2b5"/>
      <path d="M347.3,256.54v0l0-.05h0l0,0,0,0h-.16l0,0h0a0,0,0,0,0,0,0h0v0h0a0,0,0,0,0,0,0,.13.13,0,0,0,0,.06h0l0,0h.17l0,0h0l0,0h0v0Z" fill="#ffe2b5"/>
      <path d="M349,256.2a.13.13,0,0,0-.17-.06.9.9,0,0,0-.27.11.35.35,0,0,0-.13.11.12.12,0,0,0,.08.16.24.24,0,0,0,.17,0l.07-.05.17-.08.07-.05A.11.11,0,0,0,349,256.2Z" fill="#ffe2b5"/>
      <path d="M349.51,255.68a0,0,0,0,0,0,0l0,0h-.15l0,0s0,0,0,0l0,0v.06s0,0,0,0,0,0,0,0h0v0l.05,0h.05a.12.12,0,0,0,.05-.05.05.05,0,0,0,0,0A.15.15,0,0,0,349.51,255.68Z" fill="#ffe2b5"/>
      <path d="M349.14,255.44a.47.47,0,0,0-.06-.09.11.11,0,0,0-.13,0l-.05.05h0a.07.07,0,0,0,0,0,0,0,0,0,0,0,0,.11.11,0,0,0,0,.08.16.16,0,0,0,.13.15.17.17,0,0,0,.17-.14A.5.5,0,0,0,349.14,255.44Z" fill="#ffe2b5"/>
      <path d="M344.43,257.78a.38.38,0,0,0-.08-.17.49.49,0,0,0-.12-.13l-.06,0-.05,0a.16.16,0,0,0-.18.07.2.2,0,0,0,0,.2.25.25,0,0,0,.1.15.53.53,0,0,0,.15.11h0a.17.17,0,0,0,.18,0A.16.16,0,0,0,344.43,257.78Z" fill="#ffe2b5"/>
      <path d="M345.15,257.78l-.07-.07H345a.11.11,0,0,0-.08,0s0,0,0,0h0a.07.07,0,0,0-.06.08.15.15,0,0,0,.13.13H345l.08,0a.14.14,0,0,0,.07-.08A.14.14,0,0,0,345.15,257.78Z" fill="#ffe2b5"/>
      <path d="M345.14,257.16a.15.15,0,0,0-.1-.17.29.29,0,0,0-.33.13.19.19,0,0,0,0,.1.2.2,0,0,0,0,.11.21.21,0,0,0,.15.08.28.28,0,0,0,.18-.06.33.33,0,0,0,.11-.15S345.14,257.18,345.14,257.16Z" fill="#ffe2b5"/>
      <path d="M346.86,258.11a0,0,0,0,0,0-.05.15.15,0,0,0-.14,0s-.05,0-.07,0a.12.12,0,0,0-.05.07s0,0,0,0h0a.07.07,0,0,0,0,.06.05.05,0,0,0,0,.05h.1l.07,0a.25.25,0,0,0,.1-.08S346.86,258.12,346.86,258.11Z" fill="#ffe2b5"/>
      <path d="M351.25,255.83a.32.32,0,0,0-.21-.2.58.58,0,0,0-.29,0,.42.42,0,0,0-.26.1.2.2,0,0,0,0,.28l0,0a.08.08,0,0,0,0,0h0a0,0,0,0,0,0,0,.44.44,0,0,0,.16.06.29.29,0,0,0,.16,0l.21,0A.2.2,0,0,0,351.25,255.83Z" fill="#ffe2b5"/>
      <path d="M351.84,255.13s0,0,0-.07h0s0,0,0,0a.1.1,0,0,0-.05,0,.11.11,0,0,0-.11,0,.14.14,0,0,0-.09.08v0a0,0,0,0,0,0,0,.2.2,0,0,0,0,.07.21.21,0,0,0,0,.06l.06,0h.1l0,0h0l0,0A.09.09,0,0,0,351.84,255.13Z" fill="#ffe2b5"/>
      <path d="M351.23,254.54a.22.22,0,0,0-.11-.14.28.28,0,0,0-.18,0,.48.48,0,0,0-.17.05.16.16,0,0,0-.06.18h0a0,0,0,0,0,0,0s0,.05.06.07a.24.24,0,0,0,.18,0C351.07,254.74,351.23,254.67,351.23,254.54Z" fill="#ffe2b5"/>
      <path d="M411.46,127.82a26.95,26.95,0,1,1-26.95-26.95A26.95,26.95,0,0,1,411.46,127.82Z" fill="#bfdeff"/>
      <path d="M384.51,155.26A27.45,27.45,0,1,1,412,127.82,27.47,27.47,0,0,1,384.51,155.26Zm0-53.89A26.45,26.45,0,1,0,411,127.82,26.48,26.48,0,0,0,384.51,101.37Z" fill="#4c749f"/>
      <rect fill="#ffcd7f" height="18.81" width="1.14" x="389.5" y="99.15"/>
      <polygon fill="#4c749f" points="396.78 140.24 383.19 140.24 382.32 113.67 397.61 113.67 396.78 140.24"/>
      <rect fill="#9bc5f2" height="2.48" rx=".33" width="16.09" x="381.92" y="111.84"/>
      <path d="M383.36,110.15h13.22a.37.37,0,0,1,.37.37v1.32a0,0,0,0,1,0,0H383a0,0,0,0,1,0,0v-1.32A.37.37,0,0,1,383.36,110.15Z" fill="#9bc5f2"/>
      <polygon fill="#bfdeff" opacity=".8" points="382.89 131.05 382.85 129.88 397.55 115.63 397.51 116.88 382.89 131.05"/>
      <polygon fill="#bfdeff" opacity=".8" points="383.05 135.88 383.01 134.71 397.39 120.76 397.35 122.01 383.05 135.88"/>
      <rect fill="#4c749f" height=".24" width="15.58" x="382.18" y="113.85"/>
      <path d="M371.28,119a.22.22,0,0,0,0-.08,1.75,1.75,0,0,0-.46,0,2,2,0,0,0-.8,0,.3.3,0,0,0,0,.08s0,0,0,0h0l.26,13,1.38,0-.25-12.92Z" fill="#ffcd7f"/>
      <path d="M378,118.7a1.56,1.56,0,0,0-.44-.38.37.37,0,0,0-.36.08l-.38.21L376.6,131l1.29,0,.19-12a.77.77,0,0,0-.07-.26Z" fill="#ffcd7f"/>
      <path d="M375.59,119.48s0,0,0-.08a1.83,1.83,0,0,0-.47-.05,2,2,0,0,0-.8,0l0,.07s0,0,0,0h0v13h1.39V119.53Z" fill="#ffcd7f"/>
      <path d="M369.62,119.32l-.05-.08a2.35,2.35,0,0,0-.47,0,1.75,1.75,0,0,0-.79,0,.25.25,0,0,0,0,.07l0,0h0l.26,13,1.38,0-.26-12.92A.43.43,0,0,1,369.62,119.32Z" fill="#ffcd7f"/>
      <path d="M384.09,120.25a.59.59,0,0,0,0-.08,1.65,1.65,0,0,0-.45-.11,2,2,0,0,0-.8-.1l-.05.07a.05.05,0,0,1,0,0h0L381,132.92l1.37.19,1.76-12.8Z" fill="#ffcd7f"/>
      <path d="M380.19,119.13l0-.08a3.39,3.39,0,0,0-.47,0,2,2,0,0,0-.8,0s0,0,0,.08l0,0h0v13h1.39V119.18S380.2,119.15,380.19,119.13Z" fill="#ffcd7f"/>
      <path d="M373.57,119.64a.56.56,0,0,0-.05-.08,1.78,1.78,0,0,0-.47,0,1.75,1.75,0,0,0-.79,0l-.05.07s0,0,0,.05h0v13h1.38v-13Z" fill="#ffcd7f"/>
      <path d="M372.28,119.19l0,0h-.58a2.9,2.9,0,0,0-.51,0h0l-.05,0h0l0,0,0,0s0,0,0,0a.13.13,0,0,0,0,.08l.26,13.12,1.38,0-.26-13.14S372.26,119.17,372.28,119.19Z" fill="#ffe2b5"/>
      <path d="M374.47,119.3a1.9,1.9,0,0,0-.55-.39.6.6,0,0,0-.45.08c-.17.07-.33.14-.48.22l-.25,12.36,1.61,0,.24-12a1.12,1.12,0,0,0-.08-.26Z" fill="#ffe2b5"/>
      <path d="M381.36,119.62s0,0,0,0H382a2.9,2.9,0,0,1,.51,0h0l.05,0h0l0,0,0,0,0,0,0,.09-1.12,13.07-1.38-.12,1.12-13.09Z" fill="#ffe2b5"/>
      <path d="M377.8,119.93l0,0h.3a2.43,2.43,0,0,0,.27,0,3,3,0,0,1,.52,0h0l.05,0h0l0,0,0,0s0,0,0,0l0,.09-.26,13.12-1.39,0,.27-13.14S377.82,119.91,377.8,119.93Z" fill="#ffe2b5"/>
      <path d="M366.86,119.31l0,0,0,0h0l0,0h.21l.27,0a4,4,0,0,1,.5-.09h.12l.05,0,0,0,0,0a.2.2,0,0,1,0,.08l1.44,13-1.38.15-1.44-13.06S366.88,119.28,366.86,119.31Z" fill="#ffe2b5"/>
      <path d="M376.69,118.69l0,0h-.57a3,3,0,0,0-.52,0h-.08l0,0-.05,0,0,0s0,0,0,0l0,.08.26,13.12,1.39,0-.27-13.14S376.67,118.67,376.69,118.69Z" fill="#ffe2b5"/>
      <path d="M370.63,118.69l0,0H370a3.05,3.05,0,0,0-.52,0h-.08l0,0,0,0,0,0s0,0,0,0a.26.26,0,0,0,0,.08l.26,13.12,1.39,0-.27-13.14S370.61,118.67,370.63,118.69Z" fill="#ffe2b5"/>
      <path d="M381.25,120.68l0-.08a2.34,2.34,0,0,0-.46-.09,1.82,1.82,0,0,0-.8-.06l-.05.07a.08.08,0,0,1,0,0h0l-1.23,12.91,1.38.13,1.23-12.87A.07.07,0,0,1,381.25,120.68Z" fill="#ffe2b5"/>
      <path d="M382.18,141.9a39.91,39.91,0,0,1-13.92,0l-1.74-14.56h17.17Z" fill="#9bc5f2"/>
      <polygon fill="#d7e8fa" opacity=".38" points="381.4 134 369.18 134 369.01 131.22 381.58 131.22 381.4 134"/>
      <path d="M398.84,142.29a1.6,1.6,0,0,0-1-1.5h-.07l-18.06.09a1.67,1.67,0,0,0-1,1.54,1.41,1.41,0,0,0,.83,1l18.42-.1C398.35,143.09,398.79,142.77,398.84,142.29Z" fill="#a55852"/>
      <path d="M399.29,140.67a.06.06,0,0,0,0,0,.3.3,0,0,0,0-.1.5.5,0,0,0-.17-.21l0,0-.06,0-.13-.06h0l-.07,0-.12-.05a.59.59,0,0,1-.14-.06h0l-19.6.11h-.05c-.23.07-.47.2-.42.48s.51.22.67.49c.06.1,0,.16.15.21a.92.92,0,0,0,.37,0,1.51,1.51,0,0,0,.3,0c.09,0,.19,0,.21-.1a.3.3,0,0,1,.33-.13,2,2,0,0,0,.59.15c.15,0,.3,0,.44,0a5.9,5.9,0,0,1,.59-.06,13,13,0,0,1,1.76,0c.55,0,1.07-.31,1.63-.33a14.47,14.47,0,0,1,2,.34c.69.08,1.37-.1,2.07-.07.32,0,.63.11.94.12h.2l.8-.17h0l.19-.05a6.21,6.21,0,0,1,1.29-.14c.45,0,.89,0,1.34.08l.68.07.3,0A6.5,6.5,0,0,1,396,141a1.69,1.69,0,0,1,.86.15,4.73,4.73,0,0,0,.79.37h.15a1,1,0,0,0,.3,0,1.56,1.56,0,0,0,1-.38,1.05,1.05,0,0,0,.2-.27,0,0,0,0,1,0,0v0h0v-.15Z" fill="#96d6e0"/>
      <path d="M377.38,143.77c0,.15,0,.29,0,.44a2.67,2.67,0,0,0,.42,1,3.6,3.6,0,0,0,2.27,1.22,22.71,22.71,0,0,0,5.59.27c1.95-.07,3.91-.14,5.87-.18a37.25,37.25,0,0,0,5.59-.26,4,4,0,0,0,2.25-1,2.38,2.38,0,0,0,.65-1.69.93.93,0,0,0-.92-.81l-20.83.11A.92.92,0,0,0,377.38,143.77Z" fill="#ffcd7f"/>
      <path d="M397.72,138.88l-18.07.09a1.12,1.12,0,0,1-1.13-1.12v-1a.45.45,0,0,1,.44-.45l19.44-.1a.44.44,0,0,1,.44.44v1A1.13,1.13,0,0,1,397.72,138.88Z" fill="#a55852"/>
      <path d="M398.94,138.78c-.2-.05-.4-.08-.6-.12l-19.6.1a4.85,4.85,0,0,0-.49.29,3.15,3.15,0,0,0-.3.24.85.85,0,0,0,0,.17h0a3,3,0,0,0,.75.61,3.16,3.16,0,0,0,.68.29l12-.06a1,1,0,0,1,.41.11,4,4,0,0,1,1.32.9,3.11,3.11,0,0,0,1.27.87,3.06,3.06,0,0,1,1.4-1.4,5.28,5.28,0,0,1,1.47-.48l.54-.16a3.65,3.65,0,0,0,.64-.28,1.71,1.71,0,0,0,.82-1A2,2,0,0,0,398.94,138.78Z" fill="#ffe2b5"/>
      <path d="M388.62,128.45c-10.55.06-11.29,7.53-11.28,8.52a.91.91,0,0,0,.93.91l20.82-.11a.92.92,0,0,0,.92-.92C400,135.86,399.18,128.4,388.62,128.45Z" fill="#ffcd7f"/>
      <path d="M388,129.33a.37.37,0,0,0-.23-.1.26.26,0,0,0-.24,0,.42.42,0,0,0-.14.09.22.22,0,0,0-.07.09l0,0a.14.14,0,0,0,.06.19.32.32,0,0,0,.17,0,.44.44,0,0,0,.16,0,.67.67,0,0,0,.32-.17A.11.11,0,0,0,388,129.33Z" fill="#fff1da"/>
      <path d="M383,130.85a.2.2,0,0,0-.13-.08.26.26,0,0,0-.16-.11,1.07,1.07,0,0,0-.52.08.33.33,0,0,0-.17.26.25.25,0,0,0,.15.26.54.54,0,0,0,.28,0,1.32,1.32,0,0,0,.49-.19A.17.17,0,0,0,383,130.85Z" fill="#fff1da"/>
      <path d="M385.72,130.39a.16.16,0,0,0,0-.07h0l0,0-.06,0h-.16a.41.41,0,0,0-.11.07l0,0,0,0,0,.05v.05a.15.15,0,0,0,0,.09l0,0a.18.18,0,0,0,.07,0h.1l.09,0s0,0,0,0l.06,0,0,0,.06,0a.09.09,0,0,0,0-.05.25.25,0,0,0,0-.07S385.72,130.41,385.72,130.39Z" fill="#fff1da"/>
      <path d="M389.16,130.91a.71.71,0,0,0-.47-.09.38.38,0,0,0-.2.1.35.35,0,0,0-.1.19.23.23,0,0,0,0,.14.28.28,0,0,0,.11.08.3.3,0,0,0,.13,0,.58.58,0,0,0,.55-.13A.18.18,0,0,0,389.16,130.91Z" fill="#fff1da"/>
      <path d="M391.25,129.63s0,0,0-.06l-.06-.06-.05,0-.06,0a.18.18,0,0,0-.1,0,.2.2,0,0,0-.11,0,.25.25,0,0,0-.09,0l-.05.05a.09.09,0,0,0,0,.06v.06a.14.14,0,0,0,0,.07l.05,0s0,.05,0,.06l0,0,.09,0h.19l.09,0v0h0l0,0a.14.14,0,0,0,0-.06A.2.2,0,0,0,391.25,129.63Z" fill="#fff1da"/>
      <path d="M396.12,131.32a.39.39,0,0,0-.15-.16.73.73,0,0,0-.35-.12.37.37,0,0,0-.25.09.24.24,0,0,0-.06.24.19.19,0,0,0,.05.14.6.6,0,0,0,.3.17.55.55,0,0,0,.18,0,.47.47,0,0,0,.2-.06.22.22,0,0,0,.1-.13A.22.22,0,0,0,396.12,131.32Z" fill="#fff1da"/>
      <path d="M393.3,130a.37.37,0,0,0-.17-.1.41.41,0,0,0-.16,0,.39.39,0,0,0-.18.06.18.18,0,0,0-.08.11.15.15,0,0,0,0,.13.19.19,0,0,0,.1.08.53.53,0,0,0,.2.13.29.29,0,0,0,.13,0,.37.37,0,0,0,.18,0l0,0,0-.05a.17.17,0,0,0,0-.12A.36.36,0,0,0,393.3,130Z" fill="#fff1da"/>
      <path d="M394.28,131.32l0,0-.07-.05a.16.16,0,0,0-.09,0l-.09,0h-.09a.19.19,0,0,0-.08,0l-.06,0h0l0,0a.22.22,0,0,0,0,.21.18.18,0,0,0,.12.09h.22a.24.24,0,0,0,.12,0,.38.38,0,0,0,.09-.09s0,0,0,0v-.07A.09.09,0,0,0,394.28,131.32Z" fill="#fff1da"/>
      <path d="M391.51,131.27a.24.24,0,0,0-.06-.08.33.33,0,0,0-.13-.07h-.17l-.12.05,0,0s0,0,0,.06a.08.08,0,0,0,0,.07.14.14,0,0,0,0,.06,0,0,0,0,0,0,0l0,.05.05,0,.06,0,.07,0h.1a.23.23,0,0,0,.14,0,.27.27,0,0,0,.07-.08h0a.17.17,0,0,0,0-.05.2.2,0,0,0,0-.07A.2.2,0,0,0,391.51,131.27Z" fill="#fff1da"/>
      <path d="M380.54,132.05a.28.28,0,0,0-.13-.11l-.08,0h-.09a.43.43,0,0,0-.16,0,.34.34,0,0,0-.12.12.15.15,0,0,0,0,.13l0,.06h0a.13.13,0,0,0,0,.12l0,0,.09,0h.12l.11,0,.09-.06.08-.09A.19.19,0,0,0,380.54,132.05Z" fill="#fff1da"/>
      <path d="M385.18,131.84a.26.26,0,0,0-.18-.14.32.32,0,0,0-.17,0,.16.16,0,0,0-.1,0,.86.86,0,0,0-.14.13.41.41,0,0,0-.11.24.26.26,0,0,0,.14.22.31.31,0,0,0,.25,0,.51.51,0,0,0,.16-.09.4.4,0,0,0,.14-.15.22.22,0,0,0,0-.13A.22.22,0,0,0,385.18,131.84Z" fill="#fff1da"/>
      <path d="M393.32,132.86a.14.14,0,0,0,0-.11.24.24,0,0,0-.1-.1l-.08-.05a.44.44,0,0,0-.16,0,.42.42,0,0,0-.19.06.35.35,0,0,0-.13.14.15.15,0,0,0,0,.09.17.17,0,0,0,0,.07.18.18,0,0,0,.11.1.89.89,0,0,0,.23,0H393l.12,0h0a.16.16,0,0,0,.1-.08h0A.14.14,0,0,0,393.32,132.86Z" fill="#fff1da"/>
      <path d="M397.42,132.67a.21.21,0,0,0-.08-.06.29.29,0,0,0-.1,0,.34.34,0,0,0-.2,0h0a.15.15,0,0,0-.11.08.2.2,0,0,0,0,.13.24.24,0,0,0,.09.11l.1,0a.18.18,0,0,0,.1,0h.07l.11,0,.08-.05a.12.12,0,0,0,0-.08.14.14,0,0,0,0-.09A.1.1,0,0,0,397.42,132.67Z" fill="#fff1da"/>
      <path d="M338.46,235.28a8.33,8.33,0,1,1,8.33-8.33A8.34,8.34,0,0,1,338.46,235.28Zm0-16.24a7.91,7.91,0,1,0,7.9,7.91A7.91,7.91,0,0,0,338.46,219Z" fill="#f66282"/>
      <path d="M338.46,232.88A5.94,5.94,0,1,1,344.4,227,5.94,5.94,0,0,1,338.46,232.88Zm0-11.44A5.51,5.51,0,1,0,344,227,5.51,5.51,0,0,0,338.46,221.44Z" fill="#f66282"/>
      <path d="M341.79,227a3.33,3.33,0,1,1-3.33-3.33A3.33,3.33,0,0,1,341.79,227Z" fill="#f66282"/>
      <path d="M355.13,139.94a8.34,8.34,0,1,1,8.33-8.33A8.33,8.33,0,0,1,355.13,139.94Zm0-16.24a7.91,7.91,0,1,0,7.91,7.91A7.92,7.92,0,0,0,355.13,123.7Z" fill="#f66282"/>
      <path d="M355.13,137.54a5.94,5.94,0,1,1,5.94-5.93A5.94,5.94,0,0,1,355.13,137.54Zm0-11.44a5.51,5.51,0,1,0,5.51,5.51A5.51,5.51,0,0,0,355.13,126.1Z" fill="#f66282"/>
      <path d="M358.46,131.61a3.33,3.33,0,1,1-3.33-3.33A3.33,3.33,0,0,1,358.46,131.61Z" fill="#f66282"/>
      <path d="M306.39,177.91a18.86,18.86,0,1,1-18.86-18.86A18.85,18.85,0,0,1,306.39,177.91Z" fill="#bfdeff"/>
      <path d="M287.53,197.11a19.21,19.21,0,1,1,19.21-19.2A19.22,19.22,0,0,1,287.53,197.11Zm0-37.71A18.51,18.51,0,1,0,306,177.91,18.52,18.52,0,0,0,287.53,159.4Z" fill="#4c749f"/>
      <path d="M289.53,169.45a5.89,5.89,0,0,1-1.47-3.73l-.19-8h-3.75l-.19,8a5.89,5.89,0,0,1-1.47,3.73,5.91,5.91,0,0,0-1.48,3.87v16.22a.64.64,0,0,0,.66.6h8.72a.63.63,0,0,0,.65-.6V173.32A5.91,5.91,0,0,0,289.53,169.45Z" fill="#9bc5f2"/>
      <rect fill="#77b2f2" height="1.19" rx=".49" width="4.97" x="283.51" y="156.96"/>
      <path d="M285.12,153.53h1.76a.72.72,0,0,1,.72.72V157a0,0,0,0,1,0,0h-3.2a0,0,0,0,1,0,0v-2.7A.72.72,0,0,1,285.12,153.53Z" fill="#bf7968"/>
      <path d="M289.72,173.14c-.84,0-1.69-.06-2.53,0-.43,0-.86,0-1.28,0s-.78.11-1.18.17a7.85,7.85,0,0,1-1.19.09,4.87,4.87,0,0,1-.93-.15,5.24,5.24,0,0,0-1.62-.18c0,.08,0,.17,0,.25v16.22a.64.64,0,0,0,.66.6h8.72a.63.63,0,0,0,.65-.6V173.16Z" fill="#ffcd7f"/>
      <path d="M281,176.14h10V184H281Z" fill="#345c86"/>
      <polygon fill="#83b9f3" points="287.89 158.56 284.1 158.56 284.11 158.14 287.88 158.14 287.89 158.56"/>
      <g opacity=".4">
        <path d="M284.48,181.6a.14.14,0,0,1,0,.11.11.11,0,0,1-.09,0c-.11,0-.25-.57-.41-1.71a2.3,2.3,0,0,0,0-.29c-.06.39-.1.73-.13,1a8.19,8.19,0,0,0,0,.85.1.1,0,0,1,0,.09.12.12,0,0,1-.09,0c-.11,0-.16-.11-.16-.34s-.06-.65-.18-1.52a13.8,13.8,0,0,0-.24-1.44.18.18,0,0,1,.16-.11c.07,0,.13.16.19.47s.1.68.14,1.12l.06.66s0-.16.05-.37,0-.38.06-.5c0-.39.06-.66.06-.82v-.09a.12.12,0,0,1,0-.09.1.1,0,0,1,.08,0c.1,0,.16,0,.16.13v.07a5.23,5.23,0,0,0,.2,1.24l.12.58c0-.17,0-.4.09-.71a12.64,12.64,0,0,0,.13-1.56.18.18,0,0,1,0-.14.11.11,0,0,1,.1,0,.16.16,0,0,1,.12,0,.09.09,0,0,1,0,.08.11.11,0,0,1-.05.1,9,9,0,0,1-.16,1.57A8.35,8.35,0,0,0,284.48,181.6Z" fill="#fff"/>
        <path d="M285.8,178.57h-.15a.15.15,0,0,0,0,.08c0,.29,0,.72.06,1.3s.05,1,.05,1.3v.17h.09c.13,0,.19.05.19.16v0l-.11.08h-.31c-.25,0-.38,0-.38-.13s0-.11.14-.11h.09s.06,0,.06-.11c0-.23,0-.57,0-1s0-.8,0-1v-.46a1.77,1.77,0,0,0,0-.24l-.1,0a.1.1,0,0,1-.11-.11.09.09,0,0,1,.07-.09.38.38,0,0,1,.17-.06l.27,0a.21.21,0,0,1,.13,0,.11.11,0,0,1,0,.09.11.11,0,0,1,0,.08A.1.1,0,0,1,285.8,178.57Z" fill="#fff"/>
        <path d="M286.45,179.37l0-.82v0c0-.14,0-.22.1-.22s.13.14.24.41a21.78,21.78,0,0,1,.65,2.48v0l0-1.55v-1.32a.14.14,0,0,1,.15-.11q.12,0,.12.18v0a.28.28,0,0,0,0,.13l0,1.65v1.35a.35.35,0,0,1,0,.14.12.12,0,0,1-.1.06c-.06,0-.18-.3-.36-.91s-.36-1.27-.54-2v1.46a6.13,6.13,0,0,0,0,.63q0,.42,0,.63s0,.05-.05.07a.28.28,0,0,1-.13,0c-.05,0-.08,0-.08-.07l0-.32c0-.15,0-.4,0-.74s0-.56,0-.64Z" fill="#fff"/>
        <path d="M288.76,180.07h-.11a.13.13,0,0,0-.09,0v1.37l.25,0c.16,0,.25,0,.25.12v0a.22.22,0,0,1-.1.09l-.13,0h-.29c-.11,0-.18,0-.2-.06a.19.19,0,0,1,0-.08V179a1.22,1.22,0,0,0,0-.22,1.31,1.31,0,0,1,0-.23h0a.51.51,0,0,1,.11-.16l.33,0a.27.27,0,0,1,.14,0,.13.13,0,0,1,.06.11c0,.08-.06.13-.2.13h-.17l0,.73c0,.06,0,.15,0,.26s0,.19,0,.25l.06,0,.15,0a.16.16,0,0,1,.09,0,.18.18,0,0,1,0,.09.13.13,0,0,1,0,.1A.12.12,0,0,1,288.76,180.07Z" fill="#fff"/>
      </g>
      <path d="M294.91,189.66h0a1,1,0,0,1-.81-1.07v-8.14h-.72v8.14a1,1,0,0,1-.82,1.07h0a1.44,1.44,0,0,0-1.56,1.28h5.48A1.44,1.44,0,0,0,294.91,189.66Z" fill="#9bc5f2"/>
      <path d="M289.92,176.45a3.2,3.2,0,0,0,2.08.28c.68-.12,1.36-.21,2-.29a12.84,12.84,0,0,1,3.61,0v-.07a16.81,16.81,0,0,0-.4-3.56l-.54-2.43,0-.14H290.8l-.57,2.57a16.61,16.61,0,0,0-.4,3.53v.08Z" fill="#77b2f2" opacity=".57"/>
      <path d="M297.65,176.37a12.54,12.54,0,0,0-3.83,0,9.71,9.71,0,0,1-4,0,6.07,6.07,0,0,0,.89,3.21,4,4,0,0,0,2.24,1.8,3.86,3.86,0,0,0,.51.09h.27a3,3,0,0,0,.78-.1,3.78,3.78,0,0,0,2-1.36,5.77,5.77,0,0,0,1.14-3.54h0Z" fill="#ffcd7f"/>
      <path d="M308.73,188.56a8.33,8.33,0,1,1,8.32-8.33A8.34,8.34,0,0,1,308.73,188.56Zm0-16.23a7.91,7.91,0,1,0,7.9,7.9A7.91,7.91,0,0,0,308.73,172.33Z" fill="#f66282"/>
      <path d="M308.73,186.17a5.94,5.94,0,1,1,5.93-5.94A5.95,5.95,0,0,1,308.73,186.17Zm0-11.45a5.51,5.51,0,1,0,5.5,5.51A5.51,5.51,0,0,0,308.73,174.72Z" fill="#f66282"/>
      <path d="M312.05,180.23a3.33,3.33,0,1,1-3.32-3.33A3.33,3.33,0,0,1,312.05,180.23Z" fill="#f66282"/>
      <path d="M266.11,168.52a.39.39,0,0,1-.25-.1l-16.3-16.31a.32.32,0,0,1-.11-.24v-9.49a.34.34,0,0,1,.34-.34.34.34,0,0,1,.34.34v9.35l16.22,16.21a.34.34,0,0,1,0,.48A.39.39,0,0,1,266.11,168.52Z" fill="#4c749f"/>
      <path d="M267,167.23a1.27,1.27,0,1,1-1.8,0A1.29,1.29,0,0,1,267,167.23Z" fill="#4c749f"/>
      <path d="M251.07,142.44a1.28,1.28,0,1,0-1.28,1.27A1.27,1.27,0,0,0,251.07,142.44Z" fill="#4c749f"/>
      <path d="M382.52,97.26a.33.33,0,0,1-.33-.34V82.77a.33.33,0,0,1,.33-.34.34.34,0,0,1,.34.34V96.92A.34.34,0,0,1,382.52,97.26Z" fill="#4c749f"/>
      <path d="M383.79,96.86a1.27,1.27,0,1,1-1.27-1.28A1.27,1.27,0,0,1,383.79,96.86Z" fill="#4c749f"/>
      <path d="M383.79,82.83a1.27,1.27,0,1,0-1.27,1.27A1.27,1.27,0,0,0,383.79,82.83Z" fill="#4c749f"/>
      <path d="M276,114.09a.33.33,0,0,1-.24-.1.34.34,0,0,1,0-.48l11.09-11.09V87.58a.34.34,0,1,1,.67,0v15a.3.3,0,0,1-.1.23L276.28,114A.34.34,0,0,1,276,114.09Z" fill="#4c749f"/>
      <path d="M277,114.6a1.27,1.27,0,0,1-1.79-1.8,1.27,1.27,0,1,1,1.79,1.8Z" fill="#4c749f"/>
      <path d="M288.5,87.65a1.28,1.28,0,1,0-1.27,1.27A1.27,1.27,0,0,0,288.5,87.65Z" fill="#4c749f"/>
      <path d="M390.21,233H378.76a.35.35,0,0,1-.34-.35.34.34,0,0,1,.34-.33h11.45a.33.33,0,0,1,.33.33A.34.34,0,0,1,390.21,233Z" fill="#4c749f"/>
      <path d="M378.82,233.88a1.27,1.27,0,1,1,0-2.54,1.27,1.27,0,1,1,0,2.54Z" fill="#4c749f"/>
      <path d="M390.14,233.88a1.27,1.27,0,1,0-1.27-1.28A1.28,1.28,0,0,0,390.14,233.88Z" fill="#4c749f"/>
      <path d="M222.57,203.08a.37.37,0,0,1-.24-.1.34.34,0,0,1,0-.48l13.82-13.82V174.37a.34.34,0,0,1,.34-.34.34.34,0,0,1,.34.34v14.45a.33.33,0,0,1-.1.23L222.81,203A.37.37,0,0,1,222.57,203.08Z" fill="#4c749f"/>
      <path d="M223.51,203.59a1.27,1.27,0,0,1-1.8,0,1.27,1.27,0,0,1,1.8-1.8A1.27,1.27,0,0,1,223.51,203.59Z" fill="#4c749f"/>
      <path d="M237.76,174.43a1.27,1.27,0,1,0-1.27,1.27A1.27,1.27,0,0,0,237.76,174.43Z" fill="#4c749f"/>
      <path d="M416.07,236.15H393.75a.34.34,0,0,1,0-.68h22.32a.34.34,0,0,1,0,.68Z" fill="#4c749f"/>
      <path d="M405.25,233.79h-11.5a.35.35,0,0,1-.34-.35.34.34,0,0,1,.34-.33h11.5a.34.34,0,0,1,.34.33A.34.34,0,0,1,405.25,233.79Z" fill="#4c749f"/>
      <path d="M414.72,231.42h-21a.34.34,0,0,1-.34-.33.35.35,0,0,1,.34-.35h21a.34.34,0,0,1,.33.35A.33.33,0,0,1,414.72,231.42Z" fill="#4c749f"/>
      <path d="M410.66,229.07H393.75a.35.35,0,0,1-.34-.35.34.34,0,0,1,.34-.33h16.91a.34.34,0,0,1,.34.33A.35.35,0,0,1,410.66,229.07Z" fill="#4c749f"/>
      <path d="M240.87,169.08H230.72a.33.33,0,0,1-.34-.33.34.34,0,0,1,.34-.34h10.15a.34.34,0,0,1,.34.34A.33.33,0,0,1,240.87,169.08Z" fill="#4c749f"/>
      <path d="M253,166.73H230.72a.34.34,0,1,1,0-.68H253a.34.34,0,1,1,0,.68Z" fill="#4c749f"/>
      <path d="M242.21,164.36H230.72a.34.34,0,0,1-.34-.34.34.34,0,0,1,.34-.34h11.49a.35.35,0,0,1,.35.34A.35.35,0,0,1,242.21,164.36Z" fill="#4c749f"/>
      <path d="M297.85,83.14H280.94a.34.34,0,0,1-.34-.34.34.34,0,0,1,.34-.34h16.91a.34.34,0,0,1,.33.34A.34.34,0,0,1,297.85,83.14Z" fill="#4c749f"/>
      <path d="M312.72,80.77H280.94a.33.33,0,0,1-.34-.33.34.34,0,0,1,.34-.34h31.78a.34.34,0,0,1,.34.34A.33.33,0,0,1,312.72,80.77Z" fill="#4c749f"/>
      <path d="M378.77,78.52H368.63a.34.34,0,1,1,0-.67h10.14a.34.34,0,1,1,0,.67Z" fill="#4c749f"/>
      <path d="M396.35,76.16H368.63a.34.34,0,1,1,0-.68h27.72a.34.34,0,0,1,0,.68Z" fill="#4c749f"/>
      <path d="M400.41,73.8H368.63a.34.34,0,1,1,0-.68h31.78a.34.34,0,0,1,0,.68Z" fill="#4c749f"/>
      <path d="M385.53,71.43h-16.9a.34.34,0,1,1,0-.67h16.9a.34.34,0,1,1,0,.67Z" fill="#4c749f"/>
      <path d="M251.7,138.18H238.85a.34.34,0,0,1,0-.68H251.7a.34.34,0,1,1,0,.68Z" fill="#4c749f"/>
      <path d="M263.88,135.82h-25a.34.34,0,0,1-.34-.34.34.34,0,0,1,.34-.33h25a.33.33,0,0,1,.34.33A.34.34,0,0,1,263.88,135.82Z" fill="#4c749f"/>
      <path d="M263.88,133.46h-25a.35.35,0,0,1-.34-.34.34.34,0,0,1,.34-.34h25a.34.34,0,0,1,.34.34A.34.34,0,0,1,263.88,133.46Z" fill="#4c749f"/>
      <path d="M255.76,131.09H238.85a.34.34,0,1,1,0-.67h16.91a.34.34,0,1,1,0,.67Z" fill="#4c749f"/>
      <path d="M269.29,128.73H238.85a.34.34,0,0,1-.34-.34.35.35,0,0,1,.34-.34h30.44a.35.35,0,0,1,.34.34A.34.34,0,0,1,269.29,128.73Z" fill="#4c749f"/>
      <path d="M126,141a68.75,68.75,0,0,1-5.66,7,.45.45,0,0,0,.23.69l9.3,2.57a23.69,23.69,0,0,0,10.45.36,14.09,14.09,0,0,0,10.92-9.41c1.44-4.47-2.87-7.11-6.44-8.6-4.41-1.83-9.13-.29-12.92,1.77A17.49,17.49,0,0,0,126,141Z" fill="#acdfe7"/>
      <path d="M120.62,148.41a44.13,44.13,0,0,0,6-1.8l.48-.2c-.42.42-.83.84-1.23,1.28a6,6,0,0,0-1.18,1.86c-.09.24.26.41.34.18a5.78,5.78,0,0,1,1.17-1.83c.58-.63,1.19-1.23,1.79-1.84a.19.19,0,0,0,0-.1c1.33-.65,2.6-1.43,3.94-2.09a34.14,34.14,0,0,1,4.46-1.76c-.25,1.82-1.8,3.25-2.95,4.57l-2.08,2.38a3.2,3.2,0,0,0-1.07,2.11c0,.25.39.22.39,0,0-1,1-1.85,1.61-2.55l2.14-2.46c1.05-1.2,2.19-2.48,2.36-4.14,2.23-.68,4.52-1.21,6.79-1.71.75-.17,1.5-.34,2.25-.49a23.53,23.53,0,0,1-9.57,11.85c-.21.14,0,.46.22.33a23.93,23.93,0,0,0,9.79-12.27,22.93,22.93,0,0,1,4.68-.47c.24,0,.22-.38,0-.39a16.86,16.86,0,0,0-1.74.06s0,0,0,0a28.72,28.72,0,0,0-6.74-3.37c-2.39-.82-5.2-1.67-7.71-1.06-.24.06-.12.43.12.37a9.38,9.38,0,0,1,4,.12,28.32,28.32,0,0,1,3.53,1A28.65,28.65,0,0,1,148.6,139c-.8.09-1.6.22-2.38.36a.17.17,0,0,0-.2,0l-1.25.26-2.57.57a20.31,20.31,0,0,0-5.41-2.07c-2.13-.48-4.27-.9-6.41-1.35a.19.19,0,0,0-.07.38c2.06.44,4.13.85,6.19,1.3a20.53,20.53,0,0,1,5.12,1.87c-1,.24-2,.49-3,.75l-1.87.54a.21.21,0,0,0-.25.09A33.94,33.94,0,0,0,133,143h0a14.94,14.94,0,0,1-3.46-1.31,7,7,0,0,0-3.78-.14c-.24,0-.22.44,0,.39a9.88,9.88,0,0,1,2-.21,5.36,5.36,0,0,1,1.93.43,17.93,17.93,0,0,0,2.72,1.13c-1.74.81-3.36,1.87-5.12,2.65a38.74,38.74,0,0,1-6.76,2.13C120.25,148.1,120.38,148.47,120.62,148.41Z" fill="#e8f6f9"/>
      <path d="M138.56,130.61a27,27,0,0,0,9.7-1.69c2.41-.88,4.66-1.61,5-4.78a22,22,0,0,0-5.73-16.86,20.94,20.94,0,0,0-2.33-2.11,18.57,18.57,0,0,0-6.13-4,25.69,25.69,0,0,0-13.34-1,61.48,61.48,0,0,0-6.64,1.45c-2.67.7-5.6,2-8.13.51-.57-.32-1.11.36-1,1a52.22,52.22,0,0,0,3.1,11.81,21.82,21.82,0,0,0,6.8,8.52C125.31,127.64,131.79,130.52,138.56,130.61Z" fill="#acdfe7"/>
      <path d="M136.87,129.91a7.25,7.25,0,0,1,5.74-2.77,10.51,10.51,0,0,0,3.69-.56,18.83,18.83,0,0,0,3.28-1.76,58.16,58.16,0,0,0-5.62-4.64l-.16-.11c-6,1.21-10,6.5-15.86,8-.43.11-.63-.54-.21-.65,5.66-1.49,9.63-6.49,15.29-7.91a39.39,39.39,0,0,0-7.75-3.77l-2.74-1a24.45,24.45,0,0,0-4.18,2.4,11.71,11.71,0,0,1-3.86,1.48c-2.78.52-5.62.23-8.39.77-.43.08-.64-.58-.21-.66,2.71-.52,5.49-.28,8.22-.74a11.51,11.51,0,0,0,4.36-1.75,27.78,27.78,0,0,1,3.1-1.84c-3.06-1.1-6.12-2.19-9.08-3.52-3.68.76-7.69,1.36-10.92-1-.35-.27.1-.78.45-.52,2.76,2.05,6.22,1.68,9.41,1.06-1.11-.52-2.21-1.08-3.3-1.69a37.19,37.19,0,0,1-8.09-6.06c-.31-.32.14-.83.45-.52a40.87,40.87,0,0,0,12.07,8,.34.34,0,0,1,.37.17c.47.21.94.42,1.41.61a14.49,14.49,0,0,0-.91-3,35.39,35.39,0,0,0-3.57-6c-.25-.36.33-.74.58-.37,2,3,4.09,6,4.65,9.66.36.16.74.31,1.11.46,2.11.82,4.25,1.55,6.4,2.3l0,0c1.14.39,2.29.81,3.42,1.25.18-2.71-1.2-5.14-2.59-7.36a25.94,25.94,0,0,1-3.49-7.62c-.11-.43.55-.64.65-.21a20.08,20.08,0,0,0,1.65,4.5c.73,1.38,1.62,2.67,2.42,4a11.72,11.72,0,0,1,2,6.93,36.69,36.69,0,0,1,6.84,3.48,40.29,40.29,0,0,1,3.86,2.92c1-3-.55-6.16-1.94-8.84a19.34,19.34,0,0,1-2.57-8.85c0-.44.68-.48.69,0a15.77,15.77,0,0,0,.89,5.13A50.34,50.34,0,0,0,147,114.6c1.18,2.45,2,5.24,1,7.88,1.36,1.16,2.68,2.4,4,3.62.32.3-.14.82-.46.52l-1.41-1.31c-1.92,1.19-3.92,2.37-6.24,2.49a11.69,11.69,0,0,0-3.63.43,6.35,6.35,0,0,0-2.85,2.14C137.12,130.72,136.6,130.26,136.87,129.91Z" fill="#e8f6f9"/>
      <path d="M125.42,282.89v53.3a5.32,5.32,0,1,0,10.64,0v-53.3Z" fill="#afd1f5"/>
      <path d="M130.74,340.76a4.58,4.58,0,0,1-4.57-4.57V283.64h9.14v52.55A4.58,4.58,0,0,1,130.74,340.76Z" fill="#d7e8fa"/>
      <path d="M130.74,340.76a4.58,4.58,0,0,1-4.57-4.57V317.65h9.14v18.54A4.58,4.58,0,0,1,130.74,340.76Z" fill="#f8b1c0"/>
      <path d="M128.29,337.26a1.17,1.17,0,0,1-1.18-1.17V283.31h2.35v52.78A1.17,1.17,0,0,1,128.29,337.26Z" fill="#fff" opacity=".3"/>
      <rect fill="#cde3fa" height="2.46" opacity=".5" style="mix-blend-mode:multiply" width="10.64" x="125.42" y="282.89"/>
      <rect fill="#9bc5f2" height="3.36" rx="1.12" width="13.07" x="124.21" y="281.16"/>
      <path d="M163.21,282.89v53.3a5.32,5.32,0,1,0,10.64,0v-53.3Z" fill="#afd1f5"/>
      <path d="M168.53,340.76a4.58,4.58,0,0,1-4.57-4.57V283.64h9.14v52.55A4.58,4.58,0,0,1,168.53,340.76Z" fill="#d7e8fa"/>
      <path d="M168.53,340.76a4.58,4.58,0,0,1-4.57-4.57V323.77h9.14v12.42A4.58,4.58,0,0,1,168.53,340.76Z" fill="#ffcd7f"/>
      <path d="M166.08,337.26a1.17,1.17,0,0,1-1.17-1.17V283.31h2.34v52.78A1.17,1.17,0,0,1,166.08,337.26Z" fill="#fff" opacity=".3"/>
      <rect fill="#cde3fa" height="2.46" opacity=".5" style="mix-blend-mode:multiply" width="10.64" x="163.21" y="282.89"/>
      <rect fill="#9bc5f2" height="3.36" rx="1.12" width="13.07" x="162" y="281.16"/>
      <path d="M144.31,282.89v53.3a5.33,5.33,0,0,0,10.65,0v-53.3Z" fill="#afd1f5"/>
      <path d="M149.63,340.76a4.58,4.58,0,0,1-4.57-4.57V283.64h9.15v52.55A4.58,4.58,0,0,1,149.63,340.76Z" fill="#d7e8fa"/>
      <path d="M149.63,340.76a4.58,4.58,0,0,1-4.57-4.57v-6.31h9.15v6.31A4.58,4.58,0,0,1,149.63,340.76Z" fill="#77b2f2"/>
      <path d="M147.18,337.26a1.17,1.17,0,0,1-1.17-1.17V283.31h2.35v52.78A1.17,1.17,0,0,1,147.18,337.26Z" fill="#fff" opacity=".3"/>
      <rect fill="#cde3fa" height="2.46" opacity=".5" style="mix-blend-mode:multiply" width="10.64" x="144.31" y="282.89"/>
      <rect fill="#9bc5f2" height="3.36" rx="1.12" width="13.07" x="143.1" y="281.16"/>
      <rect fill="#3c5979" height="53.64" width="1.49" x="177.69" y="292.66"/>
      <rect fill="#3c5979" height="53.64" width="1.49" x="120.09" y="292.66"/>
      <rect fill="#4c749f" height="2.32" rx="1.12" width="63.48" x="117.89" y="292.12"/>
      <rect fill="#4c749f" height="2.32" rx="1.12" width="63.48" x="117.89" y="303.74"/>
      <path d="M181.38,345.25a1.84,1.84,0,0,1-1.87,1.81H119.76a1.81,1.81,0,1,1,0-3.62h59.75A1.85,1.85,0,0,1,181.38,345.25Z" fill="#4c749f"/>
      <path d="M382.44,336.08s12.87-24.21,2.41-23.95c-4.3.11-8,19.35-8,19.35s.84-17.56-7.76-14.8c-4.65,1.49,2.39,14.8,2.39,14.8s-6.38-8.59-10-6.15c-5.85,4,4.88,10.81,4.88,10.81Z" fill="#acdfe7"/>
      <path d="M388.09,336.06s2.26-12.82,7.25-12.6c3.56.16.35,8.84-2.68,12.59Z" fill="#acdfe7"/>
      <path d="M379.31,336.09l5.37-19A.24.24,0,0,1,385,317a.24.24,0,0,1,.16.3l-5.32,18.84Z" fill="#e8f6f9"/>
      <path d="M374.87,336.11l-3.72-15.35a.24.24,0,0,1,.47-.11l3.74,15.46Z" fill="#e8f6f9"/>
      <path d="M390.44,336.05l3.43-8.56a.24.24,0,0,1,.31-.14.25.25,0,0,1,.13.32L391,336.05Z" fill="#e8f6f9"/>
      <path d="M370.93,336.13l-6.76-7.61a.24.24,0,0,1,0-.34.23.23,0,0,1,.33,0l7,7.93Z" fill="#e8f6f9"/>
      <path d="M227.55,265.85a17,17,0,0,1,2.89-3.84c.38-.34,2.05-2.28,2.42-1.88.56.6-.72,1.72-1,2.17a4,4,0,0,0-.68,1.57,3.27,3.27,0,0,1,.51-.47c.24-.17.67-.47,1-.23s.11.74,0,1a5.65,5.65,0,0,0-.31,1,3.79,3.79,0,0,1-.15.76,5.23,5.23,0,0,1-1,1.47,10,10,0,0,1-1.44,1.15,4.12,4.12,0,0,0-1.15,1.83l-.64,1.51-2-3.16C226.43,267.75,227,266.79,227.55,265.85Z" fill="#ffa18a"/>
      <path d="M249.72,281.83,229,276.07a.69.69,0,0,1-.48-.86l8.44-30.37a.69.69,0,0,1,.86-.48l20.74,5.77a.69.69,0,0,1,.48.86l-8.44,30.36A.68.68,0,0,1,249.72,281.83Z" fill="#3c5979"/>
      <path d="M249.35,279.77l-19.11-5.31a.19.19,0,0,1-.12-.23l7.8-28.06a.19.19,0,0,1,.23-.13l19.1,5.31a.19.19,0,0,1,.13.23l-7.8,28.06A.19.19,0,0,1,249.35,279.77Z" fill="#ebf3fc"/>
      <path d="M255.72,253.11a.11.11,0,0,1-.15.09L244.22,250a.12.12,0,0,1-.09-.15l0-.11a.13.13,0,0,1,.16-.09l11.35,3.17a.13.13,0,0,1,.09.15Zm-.23.82a.12.12,0,0,0-.08-.15l-7-1.94a.12.12,0,0,0-.15.09l0,.11a.11.11,0,0,0,.08.15l7,1.94a.12.12,0,0,0,.15-.08Zm-11.17-2.1a.12.12,0,0,0-.08-.15L238.32,250a.12.12,0,0,0-.15.09l0,.11a.11.11,0,0,0,.08.15l5.91,1.65a.12.12,0,0,0,.15-.09Zm-.81-2.25a.12.12,0,0,0-.09-.14l-4.57-1.28a.12.12,0,0,0-.15.08l0,.12a.13.13,0,0,0,.09.15l4.58,1.28a.12.12,0,0,0,.15-.09Zm4.17,2.17a.12.12,0,0,0-.09-.15l-9-2.5a.11.11,0,0,0-.15.08l0,.12a.12.12,0,0,0,.09.15l9,2.51a.12.12,0,0,0,.15-.09Z" fill="#4c749f"/>
      <path d="M254,259.18a.12.12,0,0,1-.15.08l-10-2.79a.12.12,0,0,1-.08-.15l0-.12a.12.12,0,0,1,.15-.08l10,2.79a.14.14,0,0,1,.09.15Zm-.22.82a.12.12,0,0,0-.09-.15l-16.82-4.69a.11.11,0,0,0-.15.09l0,.11a.12.12,0,0,0,.09.15l16.82,4.69a.12.12,0,0,0,.15-.08Zm-10.66-4a.12.12,0,0,0-.08-.15l-5.91-1.65a.12.12,0,0,0-.15.09l0,.12a.15.15,0,0,0,.09.15l5.91,1.64a.12.12,0,0,0,.15-.08Zm10.66,4a.12.12,0,0,0-.09-.15l-16.82-4.69a.11.11,0,0,0-.15.09l0,.11a.12.12,0,0,0,.09.15l16.82,4.69a.12.12,0,0,0,.15-.08Zm-7.15-1a.13.13,0,0,0-.08-.16l-9.94-2.76a.13.13,0,0,0-.16.08l0,.12a.13.13,0,0,0,.09.15l9.94,2.77a.13.13,0,0,0,.15-.09Z" fill="#4c749f"/>
      <path d="M252.35,265.24a.14.14,0,0,1-.16.09l-2.32-.65a.11.11,0,0,1-.08-.15l0-.11a.12.12,0,0,1,.15-.09l2.32.65a.11.11,0,0,1,.09.15Zm-.23.82a.13.13,0,0,0-.09-.15l-12.53-3.49a.12.12,0,0,0-.15.08l0,.13a.11.11,0,0,0,.08.14l12.53,3.5a.15.15,0,0,0,.16-.09Zm-3-1.84a.11.11,0,0,0-.08-.14l-13.59-3.79a.12.12,0,0,0-.15.08l0,.12a.13.13,0,0,0,.09.15L249,264.43a.12.12,0,0,0,.15-.09Zm-10.47-1.9a.12.12,0,0,0-.08-.15l-3.38-.94a.11.11,0,0,0-.15.08l0,.12a.12.12,0,0,0,.08.15l3.38.94a.12.12,0,0,0,.15-.08Zm1.39,1.39a.12.12,0,0,0-.08-.15l-5-1.4a.11.11,0,0,0-.15.09l0,.11a.13.13,0,0,0,.09.15l5,1.4a.12.12,0,0,0,.15-.08Z" fill="#4c749f"/>
      <path d="M250.52,271.78a.11.11,0,0,1-.14.08l-8.54-2.38a.11.11,0,0,1-.08-.14l0-.12a.13.13,0,0,1,.15-.09l8.53,2.38a.12.12,0,0,1,.09.15Zm-.22.81a.13.13,0,0,0-.09-.15l-4.09-1.13a.12.12,0,0,0-.15.08l0,.12a.12.12,0,0,0,.09.15l4.08,1.14a.14.14,0,0,0,.16-.09ZM241.14,269a.12.12,0,0,0-.08-.16l-7.41-2.06a.13.13,0,0,0-.15.09l0,.11a.12.12,0,0,0,.08.15l7.41,2.07a.12.12,0,0,0,.15-.08Zm4.13,2.15a.12.12,0,0,0-.09-.15l-11.79-3.28a.11.11,0,0,0-.15.08l0,.12a.12.12,0,0,0,.08.15l11.79,3.28a.12.12,0,0,0,.15-.08Z" fill="#4c749f"/>
      <path d="M249,277.37a.13.13,0,0,1-.15.09l-13.89-3.87a.12.12,0,0,1-.08-.15l0-.12a.12.12,0,0,1,.15-.08l13.88,3.86a.13.13,0,0,1,.09.16Zm-.23.82a.12.12,0,0,0-.09-.15l-6.29-1.75a.12.12,0,0,0-.15.08l0,.12a.12.12,0,0,0,.08.15l6.3,1.75a.11.11,0,0,0,.14-.08Zm-14.54-5.05a.15.15,0,0,0-.09-.16l-2-.56a.12.12,0,0,0-.15.08l0,.12a.12.12,0,0,0,.08.15l2,.56a.12.12,0,0,0,.15-.08Zm7.33,3.05a.12.12,0,0,0-.09-.16l-9.61-2.68a.13.13,0,0,0-.15.09l0,.12a.12.12,0,0,0,.08.15l9.62,2.68a.13.13,0,0,0,.15-.09Zm-4.85-.35a.12.12,0,0,0-.09-.15l-5-1.4a.12.12,0,0,0-.15.08l0,.12a.11.11,0,0,0,.08.15l5,1.4a.12.12,0,0,0,.15-.08Z" fill="#4c749f"/>
      <path d="M255.92,264.31c0-.21-.21-.78-.55-.58s-.26,1.11-.29,1.44a3.25,3.25,0,0,1-1.22,2,2.64,2.64,0,0,0,.13-.68c0-.29,0-.82-.33-.95s-.68.31-.86.55a6,6,0,0,1-.65.77,4,4,0,0,0-.56.53,5,5,0,0,0-.69,1.66,7.93,7.93,0,0,0-.2,1.82,4.22,4.22,0,0,1-.94,1.95l-.93,1.35,3.76,0c.53-1,1-2,1.52-2.94a14.71,14.71,0,0,0,1.7-4.5A8.91,8.91,0,0,0,255.92,264.31Z" fill="#ffa18a"/>
      <path d="M229.39,256.48a7,7,0,0,1-.94-1.09c-.47-1-.29-2-.93-2.86l-7.52.68-.1.11a7.68,7.68,0,0,0-1.22,3,10.48,10.48,0,0,0-.1,3.83c.06.35.34,1.63.84,2,0,.41,0,.82.05,1.23a11.48,11.48,0,0,0,.06,1.44l7.62-.69c0-.53-.07-1.06-.14-1.59a3.94,3.94,0,0,0,1.32-1.68,3.83,3.83,0,0,0,.13-1.35,2.22,2.22,0,0,1,.69-1.91c.23-.2.43-.35.4-.68A.86.86,0,0,0,229.39,256.48Z" fill="#ffa18a"/>
      <path d="M218.73,347.74l-5,0c-.13.91-.69,1.7-.76,2.62a2,2,0,0,0,1.14,2,5.28,5.28,0,0,0,1.43.3,15,15,0,0,0,1.76.18,1.44,1.44,0,0,0,1.6-1.34,11.86,11.86,0,0,0-.22-1.78A7.63,7.63,0,0,1,218.73,347.74Z" fill="#1f2730"/>
      <path d="M219.23,347.74a64,64,0,0,1,.24-8.75c.37-3.34,1.49-6.52,1.67-9.9.09-1.79,3.71-16.75,4.71-20,1.06,3.86,2.08,7.73,3.4,11.5a22.67,22.67,0,0,1,1,6.14q.19,2.91.58,5.79c.54,4.08,3.34,15.2,3.38,15.34l5.53,0c-.12-3.79-1.44-15.16-1.26-17.19s.61-21.89-1.31-29.68l-21.53-.15c-.5,3.5-1,7-1.29,10.53-.29,4.24.17,8.47.14,12.71s-1,8.3-1.31,12.51a92.93,92.93,0,0,0,.06,11.07Z" fill="#4c749f"/>
      <path d="M212.77,268.75c1.59-1.59,3.81-1.94,5.6-3.14a9.17,9.17,0,0,1,.67-1.4c.3-.28,8.17-.29,8.31-.13a5.74,5.74,0,0,1,1.13,1.7,5.94,5.94,0,0,0,1.82.62,12.32,12.32,0,0,1,2.29.62,23.82,23.82,0,0,1,3.07,1.37v11.14h0c-.89,18.68,4.1,19.15,4.42,42.24a68.8,68.8,0,0,1-14.19,1.7l-.92-7.62-1,7.62a63.17,63.17,0,0,1-11.07-1.16c-.87-6.16.12-18.35,1-24.4a54.91,54.91,0,0,0,.23-11.65c-.15-3.19-1.8-8.8-2.24-10.4C211.23,273.39,210.92,270.6,212.77,268.75Z" fill="#9bc5f2"/>
      <path d="M235.09,278l-1-10.27c.39.13.77.27,1.15.44a22,22,0,0,1,4.26,2.69,34.93,34.93,0,0,0,4.32,2.93,20.16,20.16,0,0,0,3.62,1.49,24.91,24.91,0,0,1,2.55-3.46,5.11,5.11,0,0,0,3.42,2c0,1.16-.08,2.32-.13,3.48-.08,1.8-.46,3.48-2.94,4.52a2.79,2.79,0,0,1-.58.18,10.07,10.07,0,0,1-4.74-.8c-1.57-.56-3.11-1.25-4.69-1.78a17.4,17.4,0,0,0-2.43-.64C237.43,278.65,235.56,278.07,235.09,278Z" fill="#9bc5f2"/>
      <path d="M234.43,347.86l5,0c.12.91.66,1.72.72,2.64a2,2,0,0,1-1.17,1.93,5,5,0,0,1-1.43.28,15.14,15.14,0,0,1-1.76.16,1.43,1.43,0,0,1-1.58-1.37,10.61,10.61,0,0,1,.24-1.77A7.2,7.2,0,0,0,234.43,347.86Z" fill="#1f2730"/>
      <path d="M217.33,256.65l.06.27c0,2.2.67,4.95,2.83,5.82.66.27,1.39.26,2.06.5a1.53,1.53,0,0,0,1.52-.11c1-.6,2.26-1.11,2.48-2.37.13-.7,0-1.41.17-2.11a14.86,14.86,0,0,1,.89-2.29c.34-.86,1.23-1.74,1.68-2.64a1.9,1.9,0,0,0,.57-1.23A5.83,5.83,0,0,0,229,250c-.94-1.73-2.82-1.37-4.48-1.29-1,.06-2.06-.22-3.09-.14a5,5,0,0,0-2.37.79,4.69,4.69,0,0,0-2.14,4.19A23.6,23.6,0,0,0,217.33,256.65Z" fill="#a55852"/>
      <path d="M224.11,266.17a46.07,46.07,0,0,1-5.29-.32s0,0,0-.05a0,0,0,0,1,0,0h0s5.7.71,9.31,0a0,0,0,0,1,.05,0,0,0,0,0,1,0,.05A21.81,21.81,0,0,1,224.11,266.17Z" fill="#77b2f2"/>
      <path d="M224.83,295.5a34.29,34.29,0,0,1-8.87-1.17.94.94,0,0,1-.64-1.15,1,1,0,0,1,1.16-.64c.09,0,9.13,2.59,16.38-.28a.93.93,0,1,1,.68,1.74A23.76,23.76,0,0,1,224.83,295.5Z" fill="#83b9f3"/>
      <path d="M318.83,255.57l.52-.42c.34-.28.67-.56,1-.8a3.55,3.55,0,0,1,1.21-.53,5.24,5.24,0,0,0,1.18-.23,2.46,2.46,0,0,0,1.26-1.18.33.33,0,0,0,.4.23.39.39,0,0,0,.26-.31c.1.11.25.13.44,0a1.57,1.57,0,0,0,.36-1.4,1.93,1.93,0,0,0-2.46-1.41,11.68,11.68,0,0,1,.85-1.23c.15-.23.5-.7.36-1-.31-.7-1.54.91-1.7,1.17a16,16,0,0,1-.93,1.39,6.78,6.78,0,0,1-1.22,1.43,28.18,28.18,0,0,1-3.49,2.32S317.85,255.31,318.83,255.57Z" fill="#bf7968"/>
      <path d="M306.4,328.64c.1,2,.51,3.89.42,5.91a45.41,45.41,0,0,1-2.42,11.27h-3.31c.05-2.1.13-4.21.12-6.31s-.32-4.06-.21-6.09a26.72,26.72,0,0,0,.12-3,29.21,29.21,0,0,0-.35-3.09,14.61,14.61,0,0,1-.1-4.8h6.55a.11.11,0,0,1,0,.05A21.91,21.91,0,0,0,306.4,328.64Z" fill="#bf7968"/>
      <path d="M291.41,328.64c-.1,2-.52,3.89-.43,5.91a45.87,45.87,0,0,0,2.42,11.27h3.31c0-2.1-.12-4.21-.12-6.31s.32-4.06.21-6.09a29.38,29.38,0,0,1-.12-3c.05-1,.21-2.07.35-3.09a14.61,14.61,0,0,0,.11-4.8h-6.56s0,0,0,.05A21.55,21.55,0,0,1,291.41,328.64Z" fill="#bf7968"/>
      <path d="M294.53,257.53a6.87,6.87,0,0,1-.77-.94,10.3,10.3,0,0,0-2-2.44l-7.11,2.43a1.33,1.33,0,0,1-.06.12,7.47,7.47,0,0,0-.48,3.18,10.39,10.39,0,0,0,.8,3.73c.13.32.71,1.5,1.27,1.71.11.39.23.78.34,1.18a11.4,11.4,0,0,0,.4,1.38l7.2-2.46c-.15-.5-.32-1-.51-1.5a3.09,3.09,0,0,0,.69-3.26,2.17,2.17,0,0,1,.23-2c.17-.25.32-.45.21-.76A1.08,1.08,0,0,0,294.53,257.53Z" fill="#bf7968"/>
      <path d="M269.45,286.91a15.49,15.49,0,0,1,2.59-4.48c.95-1.4,1.94-2.77,3-4.08a29.12,29.12,0,0,1,7.58-6.76,8.06,8.06,0,0,0,2.46-2,13.06,13.06,0,0,1,1.47-2.06,7.2,7.2,0,0,1,3.15-1.5,23.54,23.54,0,0,1,4.3-1.15c2.33-.14,3,0,5.22-.91a32.43,32.43,0,0,0,7.43-4.4c3.52-3,7.66-5,11.78-7.05a10,10,0,0,0,2,2.68c-3.58,2.82-6.08,6.77-9.74,9.51a19.79,19.79,0,0,0-5.22,4.94,22.43,22.43,0,0,0-1.29,2.35,28.58,28.58,0,0,0-.81,8.89,31.1,31.1,0,0,0,2.79,10.65,41.56,41.56,0,0,1,3.15,10.06c.62,3.63,1,7.32,1.29,11q.36,4.68.42,9.38A69.89,69.89,0,0,1,287,323.58a94.85,94.85,0,0,1,.63-16.85c.4-3.12,1.08-6.2,1.54-9.32a23.88,23.88,0,0,0-.65-10,42,42,0,0,0-3.85-9.2c-1.52,1.94-3.08,3.84-4.73,5.67a23,23,0,0,1-2.8,2.69,55.18,55.18,0,0,0,11.43,3s-.9,1-1.34,4c0,0-4.26-.75-6.41-1-1.92-.22-3.86-.29-5.77-.56C272.32,291.7,268.53,290.37,269.45,286.91Z" fill="#ffe2b5"/>
      <path d="M282.49,260.63a14.09,14.09,0,0,0,.79,3.21,4.05,4.05,0,0,0,2.94,2.41,5.75,5.75,0,0,0-.2.71,8.37,8.37,0,0,0-.27,2,2.18,2.18,0,0,0,3.95,1.59,3.3,3.3,0,0,0,.28-4.15,4.21,4.21,0,0,0,1.7-1.46,5.32,5.32,0,0,0,.92-2.35c.12-.94-.15-1.85-.12-2.79a11.1,11.1,0,0,1,.83-2.87,5.81,5.81,0,0,0,.2-1.85,3.84,3.84,0,0,0-3.1-4.26,6.57,6.57,0,0,0-7.19,2.2,6.09,6.09,0,0,0-1.56,4.33C281.66,258.84,282.36,259.68,282.49,260.63Z" fill="#1f2730"/>
      <path d="M287.26,293.19a1.73,1.73,0,0,1,.84.4,3.61,3.61,0,0,0,.59.52.65.65,0,0,0,.87-.47,3.78,3.78,0,0,0,.12-.81c0-.31.15-.61.17-.93a1.89,1.89,0,0,0-.78-1.82l0,.2c-.1.13-.26.07-.41,0a1.81,1.81,0,0,1-.48-.2h0a5.93,5.93,0,0,0-.65,1.37A11.89,11.89,0,0,0,287.26,293.19Z" fill="#bf7968"/>
      <path d="M291.78,340.47c0-.35-.11-.7-.17-1.05l0-.19a21.38,21.38,0,0,0,5.05.08s0,.5.05,1.16Z" fill="#9bc5f2"/>
      <path d="M296.79,347.56c0-1.18.11-2.38.16-3.54s-.09-3.7-.09-3.71a21.7,21.7,0,0,1-5.15-.07l0,.2c.21,1.12.37,2.26.48,3.41,0,.49.08,1,.12,1.5a8.09,8.09,0,0,1,0,1.84c-.15.8-.76,1.46-.71,2.33a2.23,2.23,0,0,0,1,1.5c.56.45,1,1.2,1.64,1.5a2.16,2.16,0,0,0,1.9-.15c.7-.37.78-1.12.87-1.93A21.42,21.42,0,0,0,296.79,347.56Z" fill="#1f2730"/>
      <path d="M306,340.59c.05-.35.11-.7.17-1a1,1,0,0,0,0-.19,21.31,21.31,0,0,1-5,.08s0,.51-.06,1.16Z" fill="#9bc5f2"/>
      <path d="M300.75,350.44c.08.81.17,1.56.87,1.93a2.14,2.14,0,0,0,1.89.15c.65-.3,1.08-1,1.64-1.5a2.2,2.2,0,0,0,1-1.5c.06-.87-.55-1.53-.71-2.33a7.56,7.56,0,0,1,0-1.84c0-.5.07-1,.11-1.5.12-1.15.28-2.29.49-3.41l0-.2a21.7,21.7,0,0,1-5.15.07s-.14,2.47-.08,3.71.19,2.36.15,3.54A19.89,19.89,0,0,0,300.75,350.44Z" fill="#1f2730"/>
      <path d="M297.17,291.47a24.79,24.79,0,0,1-6.23.83.65.65,0,0,1-.64-.67A.64.64,0,0,1,291,291c.07,0,6.68.08,11.07-3.19a.64.64,0,0,1,.91.13.66.66,0,0,1-.13.92A16.76,16.76,0,0,1,297.17,291.47Z" fill="#ffdba3"/>
      <path d="M420.21,340.18l-5.65-2.09c.28-.64.55-1.27.78-1.93a56.13,56.13,0,0,0,1.93-6.88,29.11,29.11,0,0,0,.83-6.77,23.57,23.57,0,0,1,.12-3.66,10.07,10.07,0,0,1,.81-2.69l8.8,1.16c-.67,1.54-2.12,4.9-2.17,6.62,0,.93,0,1.85-.13,2.78a18.52,18.52,0,0,1-.52,2.65,49.2,49.2,0,0,1-4.57,10.38Z" fill="#ffa18a"/>
      <path d="M414.48,338.06c.15-.58.29-1.16.45-1.74a46.4,46.4,0,0,0,6.39,2.29l-.8,1.69Z" fill="#ffe2b5"/>
      <path d="M403.64,346.91a2.71,2.71,0,0,1,1.8-1.14c1.37-.33,5.14,0,5.63-.23a3.36,3.36,0,0,0,1.74-2.25c.64-1.92,1.1-3.92,1.64-5.87a19.23,19.23,0,0,0,6.55,2.34l-2.31,4.93a18.41,18.41,0,0,0-1,2.48,19.46,19.46,0,0,0-.44,2.3,12.58,12.58,0,0,1-.49,2.27c0,.13-.14.4-.14.4-.62.29-1.68-.14-2.19-.35a35,35,0,0,0-3.73-1.58c-1.7-.5-3.44-.84-5.13-1.39a9.27,9.27,0,0,1-1.6-.68A1,1,0,0,1,403.64,346.91Z" fill="#1f2730"/>
      <path d="M391.73,287.54c.23,0,.45,0,.68,0a1.2,1.2,0,0,1-.2,0c-.2.05-.74.05-.83.32s.32.35.51.39a11.2,11.2,0,0,0,1.63.22,8.55,8.55,0,0,0,1.68-.39,10.2,10.2,0,0,1,1.73-.2c1.24-.09,2.73-.54,3.84.18.26-.61,1-3.48,1-3.48a10.19,10.19,0,0,0-1.24-.08,5.26,5.26,0,0,1-1.3-.26,6.59,6.59,0,0,1-2.12-1.22,3.28,3.28,0,0,0-1.57-.8,6.39,6.39,0,0,0-1.07-.05c-.21,0-.64,0-.8.11-.31.27.15.63.39.72a3.39,3.39,0,0,0,.43.11c.05,0,.31.06.33.11l-.09.39-.16,0a6.1,6.1,0,0,1-1.14.26c-.86.18-1.72.31-2.58.45-.28,0-.88.09-.64.53a.66.66,0,0,0,.31.26c-.35,0-.84.16-.78.54,0,.16.18.23.32.27s.55.11.82.17a3.82,3.82,0,0,0,.88.13,5.16,5.16,0,0,0,.79-.07l.94-.07a5.21,5.21,0,0,1-2.23.55c-.27,0-1.24-.22-1.17.32S391.34,287.53,391.73,287.54Z" fill="#ee9681"/>
      <path d="M400.59,284.45a80.92,80.92,0,0,0,10.56-.65,11.26,11.26,0,0,0,5.22-1.68,41.36,41.36,0,0,0,4.13-5.19l3.65,5.42a57.29,57.29,0,0,1-4.07,4.77c-2.18,1.9-5.94,1.83-8.14,1.92-1.47,0-9.63-.08-12.26-1.19A7.59,7.59,0,0,0,400.59,284.45Z" fill="#83b9f3"/>
      <rect fill="#3c5979" height="20.16" transform="rotate(-32.9 382.334 272.247)" width="3.29" x="381.46" y="261.21"/>
      <path d="M378.5,264.12a17.16,17.16,0,1,1,5.15-23.71A17.19,17.19,0,0,1,378.5,264.12Zm-17.62-27.39a15.41,15.41,0,1,0,21.29,4.62A15.42,15.42,0,0,0,360.88,236.73Z" fill="#77b2f2"/>
      <path d="M405.33,305.74h0a3.45,3.45,0,0,1-4.84-1.15l-15.2-25.8a.54.54,0,0,1,.17-.74l2.79-1.79a.54.54,0,0,1,.74.14l17.29,24.44A3.45,3.45,0,0,1,405.33,305.74Z" fill="#4c749f"/>
      <g opacity=".3">
        <path d="M382.17,241.35a15.4,15.4,0,1,1-21.29-4.62A15.42,15.42,0,0,1,382.17,241.35Z" fill="#9bc5f2"/>
      </g>
      <g opacity=".5" style="mix-blend-mode:screen">
        <path d="M365.93,237.12c0,.1-.69.3-.76.33a11,11,0,0,0-1.57.79,20.1,20.1,0,0,0-1.92,1.33,14.17,14.17,0,0,0-4.84,8.34,16.79,16.79,0,0,0,.12,5,20.52,20.52,0,0,0,1.42,3.89l.38.7c.07.15-.09.35-.23.2a11.35,11.35,0,0,1-1.28-1.71,12.52,12.52,0,0,1-1.81-8.23,13.76,13.76,0,0,1,3.51-7.39,15.89,15.89,0,0,1,3-2.28,9.93,9.93,0,0,1,2.58-1.08c.4-.12.81-.2,1.22-.28.25-.05.55.26.22.4Z" fill="#fff"/>
      </g>
      <path d="M392.59,290.47h.69l-.2,0c-.2,0-.74.05-.84.3s.31.37.51.4a9,9,0,0,0,1.63.24,8.12,8.12,0,0,0,1.68-.36,11.28,11.28,0,0,1,1.74-.18c1.23-.07,2.72-.5,3.83.23.26-.6,1.07-3.46,1.06-3.46a10.2,10.2,0,0,0-1.24-.1,5.3,5.3,0,0,1-1.3-.28,6.38,6.38,0,0,1-2.1-1.24,3.24,3.24,0,0,0-1.56-.82,6.34,6.34,0,0,0-1.07-.07c-.2,0-.63,0-.8.1s.13.62.38.72a3.52,3.52,0,0,0,.43.13c.05,0,.31,0,.33.1s-.06.26-.1.39l-.16,0a4.94,4.94,0,0,1-1.14.25c-.86.17-1.72.29-2.59.42-.28,0-.88.07-.65.52a.63.63,0,0,0,.31.27c-.35,0-.84.14-.79.52,0,.16.18.23.31.28s.55.12.82.19a4.55,4.55,0,0,0,.89.13,4.27,4.27,0,0,0,.79-.06c.31,0,.63,0,.94-.05a5.25,5.25,0,0,1-2.24.51c-.27,0-1.23-.24-1.17.31S392.21,290.45,392.59,290.47Z" fill="#ffa18a"/>
      <path d="M439.69,338.51l-6,.47c0-.7,0-1.39-.09-2.08a58.62,58.62,0,0,0-1.14-7.06,29.42,29.42,0,0,0-2.08-6.49,22.83,22.83,0,0,1-1.43-3.38,9.34,9.34,0,0,1-.39-2.78l8.54-.67a13,13,0,0,0,.73,5c.37.85.76,1.68,1.05,2.57a19.43,19.43,0,0,1,.65,2.63,49.42,49.42,0,0,1,.2,11.34Z" fill="#ffa18a"/>
      <path d="M433.6,339l-.33-1.76a48.71,48.71,0,0,0,6.78-.6s0,.83,0,1.86Z" fill="#ffe2b5"/>
      <path d="M427.47,351.56a2.76,2.76,0,0,1,1.16-1.79c1.11-.87,4.65-2.19,5-2.56a3.43,3.43,0,0,0,.64-2.77c-.23-2-.65-4-1-6a19.13,19.13,0,0,0,6.93-.62l0,5.45a16.87,16.87,0,0,0,.13,2.66,17.64,17.64,0,0,0,.56,2.28,12.63,12.63,0,0,1,.51,2.27c0,.14,0,.42,0,.42-.45.53-1.59.58-2.14.6a34.09,34.09,0,0,0-4,.14c-1.76.25-3.48.67-5.24.87a8.62,8.62,0,0,1-1.74.07A1,1,0,0,1,427.47,351.56Z" fill="#1f2730"/>
      <path d="M401,287.47a83,83,0,0,0,10.57-.65,11.15,11.15,0,0,0,5.22-1.69,35.17,35.17,0,0,0,3.71-4.43l4.06,4.67a58.83,58.83,0,0,1-4.07,4.76c-2.19,1.9-5.94,1.83-8.13,1.93-1.48.05-9.64-.09-12.27-1.2A7.42,7.42,0,0,0,401,287.47Z" fill="#9bc5f2"/>
      <path d="M432.17,263.47c.18-.81.33-1.35.33-1.35a2,2,0,0,1-1.4-1.61s-.23-6.94-2.53-7.45c-2.72-.61-4.06,0-4.91,2.62a3.2,3.2,0,0,1-1.65,1.87.36.36,0,0,0,.2.65l.4.07a.19.19,0,0,1,.14.19,8,8,0,0,0,0,2.18c.2,1.57-.17,3.14,2.47,3.4.32,0,.62,0,.92,0l-1.37,5.11c.83,1.38,4.48-.48,5.45-.66a10.88,10.88,0,0,0,2.3-.82C432.31,266.17,431.89,264.72,432.17,263.47Z" fill="#ffa18a"/>
      <path d="M432.85,265.52a4.3,4.3,0,0,0,1.23.52,1.89,1.89,0,0,0,2.08-.9,2.72,2.72,0,0,0,.32-2.21,2.61,2.61,0,0,0-2-2s2.25-1.39,2.13-5.12a7.29,7.29,0,0,0-2.73-5.32,7.56,7.56,0,0,0-4.57-1.38c-1.32.05-3.38.11-4.27,1.22a3.69,3.69,0,0,0,.91,5c.35.23.81.36,1.05.72s.17.82.28,1.23a8.37,8.37,0,0,0,1.12,2.16,14.62,14.62,0,0,1,1,2.48,5.43,5.43,0,0,0,1.17,1.75,16.4,16.4,0,0,0,2,1.65C432.59,265.35,432.72,265.43,432.85,265.52Z" fill="#1f2730"/>
      <path d="M434.07,285.8c-.58-2-.05-4,.31-6a31.14,31.14,0,0,0,.67-5.27c.05-2.74-.67-5.71-2.68-7.65a21.55,21.55,0,0,1-3.67,1.28,17.52,17.52,0,0,1-3.67-.12c-2.46,3.09-2.59,3.9-4,7.38,0,0-1.38,2.48-1.33,8.11a27.77,27.77,0,0,0,.18,3c.18,1.6.41,3.21.44,4.82a33.9,33.9,0,0,1-.42,5.33A190.12,190.12,0,0,1,415.48,317c0,.11,14.09,1.1,16.76,1.34,4.94.43,6.3-.12,10.75-2C442.27,306.88,434.52,287.37,434.07,285.8Z" fill="#9bc5f2"/>
      <path d="M420,281.65a60.61,60.61,0,0,0,4-5.13,31.36,31.36,0,0,1,2.14-2.62,5.84,5.84,0,0,1,2.77-1.87,2.53,2.53,0,0,1,3.07,1.4.05.05,0,0,0,.1,0,2.44,2.44,0,0,0-1.92-1.54,4,4,0,0,0-2.93.88,14.38,14.38,0,0,0-2.46,2.59c-.74.93-1.43,1.9-2.14,2.85a35.5,35.5,0,0,1-2.73,3.39c-.05.05,0,.12.07.08Z" fill="#77b2f2"/>
      <path d="M420.4,290.33c2-1.33,3.93-2.66,5.77-4.16a28.29,28.29,0,0,0,5.06-5,4.69,4.69,0,0,0,1.11-3.48c0-.07-.11,0-.1,0a4.6,4.6,0,0,1-1.11,3.4,24.09,24.09,0,0,1-2.34,2.61,42.77,42.77,0,0,1-5.26,4.33c-1,.75-2.11,1.48-3.19,2.19a.06.06,0,0,0,.06.1Z" fill="#77b2f2"/>
      <path d="M519.37,260.94c-4.62,1.61-9.51,4.4-11.32,9.5-1.47,4.13-2.53,9.75,2.32,11.95a16,16,0,0,0,16.21-2,27,27,0,0,0,7.64-9.06c1.64-3.25,3.29-6.5,4.92-9.76a.5.5,0,0,0-.4-.72,79.9,79.9,0,0,1-10.23-.61A19.6,19.6,0,0,0,519.37,260.94Z" fill="#acdfe7"/>
      <path d="M538.85,261.35A50.08,50.08,0,0,1,532.8,265l-.53.24q1,0,2-.06a7.08,7.08,0,0,1,2.46.43c.26.11.14.53-.11.42a6.75,6.75,0,0,0-2.43-.41c-1,0-1.94.07-2.91.1a.2.2,0,0,1-.11,0c-1.57.62-3.19,1.1-4.76,1.72a38,38,0,0,0-4.87,2.41c1.71,1.17,4.1.95,6.07,1l3.59.06a3.67,3.67,0,0,1,2.58.71c.21.19-.11.5-.31.31-.84-.79-2.31-.58-3.37-.6l-3.69-.06c-1.81,0-3.76-.06-5.28-1.17-2.27,1.35-4.45,2.88-6.6,4.4-.71.5-1.42,1-2.12,1.51a26.67,26.67,0,0,0,17.23,1c.27-.08.37.35.11.43A27.12,27.12,0,0,1,512,276.28a26.23,26.23,0,0,0-4,3.56c-.18.21-.49-.11-.3-.31a18.37,18.37,0,0,1,1.37-1.42s0,0,0,0a32.81,32.81,0,0,1,2.29-8.23c1.14-2.63,2.56-5.62,5-7.27.23-.16.44.22.21.38a10.45,10.45,0,0,0-3,3.49,32.06,32.06,0,0,0-1.87,3.7,32.77,32.77,0,0,0-2.14,7.5c.68-.6,1.39-1.17,2.12-1.71a.16.16,0,0,1,.18-.14l1.17-.86,2.44-1.72a22.61,22.61,0,0,1,2.38-6.12c1.21-2.15,2.49-4.27,3.73-6.4a.22.22,0,0,1,.38.23c-1.21,2.06-2.43,4.11-3.62,6.18a23.13,23.13,0,0,0-2.32,5.73c1-.67,1.94-1.32,2.92-2,.62-.4,1.24-.79,1.87-1.16a.27.27,0,0,1,.27-.16c1.21-.7,2.45-1.37,3.73-1.95a0,0,0,0,1,0,0c.84-1.16,1-2.6,1.53-3.91a7.85,7.85,0,0,1,2.77-3.27c.21-.18.52.14.29.31a12.44,12.44,0,0,0-1.67,1.49,6.17,6.17,0,0,0-1.1,1.95,21.3,21.3,0,0,1-1.12,3.14c2-.84,4.12-1.4,6.12-2.27a44.54,44.54,0,0,0,6.93-4.06C538.87,260.8,539.08,261.19,538.85,261.35Z" fill="#e8f6f9"/>
      <path d="M464.4,347.43A.48.48,0,0,0,465,347l13.92-83.77a.48.48,0,0,0-.4-.55l-.09,0a.49.49,0,0,0-.56.4l-13.92,83.76a.48.48,0,0,0,.4.55Z" fill="#1f2730"/>
      <path d="M490.25,347.43a.48.48,0,0,0,.56-.39l13.92-83.77a.48.48,0,0,0-.4-.55l-.09,0a.48.48,0,0,0-.55.4l-13.93,83.76a.48.48,0,0,0,.4.55Z" fill="#1f2730"/>
      <rect fill="#1f2730" height="1.06" width="26.08" x="475.2" y="280.19"/>
      <rect fill="#1f2730" height="1.06" width="26.08" x="473.36" y="291.49"/>
      <rect fill="#1f2730" height="1.06" width="26.08" x="471.51" y="302.81"/>
      <rect fill="#1f2730" height="1.06" width="26.08" x="469.66" y="314.11"/>
      <rect fill="#1f2730" height="1.06" width="26.09" x="467.82" y="325.42"/>
      <rect fill="#1f2730" height="1.06" width="26.08" x="465.97" y="336.73"/>
      <path d="M518.53,347a.49.49,0,0,0,.56.39l.09,0a.48.48,0,0,0,.4-.55L505.65,263.1a.48.48,0,0,0-.55-.4l-.1,0a.48.48,0,0,0-.39.55Z" fill="#4c749f"/>
      <path d="M492.68,347a.48.48,0,0,0,.55.39l.1,0a.47.47,0,0,0,.39-.55L479.81,263.1a.5.5,0,0,0-.56-.4l-.1,0a.48.48,0,0,0-.4.55Z" fill="#4c749f"/>
      <rect fill="#4c749f" height="1.06" width="26.08" x="482.2" y="280.19"/>
      <rect fill="#4c749f" height="1.06" width="26.08" x="484.05" y="291.49"/>
      <rect fill="#4c749f" height="1.06" width="26.09" x="485.89" y="302.81"/>
      <rect fill="#4c749f" height="1.06" width="26.09" x="487.74" y="314.11"/>
      <rect fill="#4c749f" height="1.06" width="26.08" x="489.59" y="325.42"/>
      <rect fill="#4c749f" height="1.06" width="26.09" x="491.43" y="336.73"/>
      <path d="M476.32,263.61a1,1,0,0,0,1,1h29.88a1,1,0,0,0,1-1v-1.25a1,1,0,0,0-1-1H477.28a1,1,0,0,0-1,1Z" fill="#3c5979"/>
      <polygon fill="#bf7968" points="490.75 253.37 486.46 252.82 486.85 255.93 490.37 256.77 490.75 253.37"/>
      <path d="M490.52,255.43c.65.16.83,4.67,0,5.22a6.35,6.35,0,0,1-2.87.75c-2.06.12-4,.92-5.09.92-1.73,0-2.8-.66-2.48-2s3.07-.73,6.11-5c.38-.52.89-.31,1.28-.08s.88.84,1.58.89A1.43,1.43,0,0,0,490.52,255.43Z" fill="#1f2730"/>
      <polygon fill="#bf7968" points="503.23 252.86 499.27 253.22 499.89 256.84 503.45 256.45 503.23 252.86"/>
      <path d="M499.36,258.49c0,.75.07,1.52.06,2.28,0,1.48-.17,2.87,2.42,3.14,2.1.2,4-.72,3.62-2.32-.17-.67-.62-1.3-.84-2s-.14-1.46-.32-2.17c-.15-.56-.21-.81-.85-1,0-.67-.51-1.32-1.59-1.37a1.58,1.58,0,0,0-1.63.95.75.75,0,0,0-.78.42C499.11,257,499.37,257.93,499.36,258.49Z" fill="#1f2730"/>
      <path d="M485,207c-.33,10.29,0,6.58-.42,24.47a107.19,107.19,0,0,0,1.48,22.3c1.08.65,5,.34,5,.34,1.92-3.51,1-6.36,2.29-20.33.41-4.39.69-14.81,1.09-14.8.72,0,2.19,12.87,2.26,14a200.07,200.07,0,0,0,2.1,21.43c1.47.49,5.31,0,5.31,0,1.08-5.68,1.45-8.94,1.38-24-.08-15.68-.09-16.47-1.84-23.52Z" fill="#4c749f"/>
      <path d="M460.59,187.32a2.06,2.06,0,0,0,.7,1.41,6.41,6.41,0,0,0,1.59,1.11,3.91,3.91,0,0,0,2.23.34,8,8,0,0,1,2.39,0c.74.23,1.92,1.62,3.15,2.59l1.12-3.71s-.83-.36-1.65-.74a10.23,10.23,0,0,0-2.41-1.14,3,3,0,0,0-1.12.1,4.46,4.46,0,0,1-1.36.09,3.25,3.25,0,0,1-.69-.14l.12-.19c.17-.22.43-.52.36-.82a.28.28,0,0,0-.23-.21.44.44,0,0,0-.31.09c.06-.24,0-.58-.3-.57a1.1,1.1,0,0,0-.42.17,1,1,0,0,0-.16.12.37.37,0,0,0-.46-.45,1.21,1.21,0,0,0-.66.46.41.41,0,0,0,0-.29c-.23-.42-.87.18-1.06.37A2.59,2.59,0,0,0,460.59,187.32Z" fill="#bf7968"/>
      <path d="M498.39,176.43l-.68-5.76a19.86,19.86,0,0,0,0-2.35c-.36-3.36-3.77-6-6.47-5.69s-4.22,3-3.74,6.33c.45,3.13,2.85,6.12,5.19,5.67l-.18,2.13C493.36,178.4,498.55,178.2,498.39,176.43Z" fill="#bf7968"/>
      <path d="M497.83,171.69A3.8,3.8,0,0,0,499.2,169c.51-2.84.35-6-1.74-8a7.57,7.57,0,0,0-10.58.47c-1.57,1.91-1.76,4.5-.47,4.89,2.22.69,3-1.86,4.07-2.08,1.81-.38,3.12,1.22,4.6,3.72,0,.07,1.32,1.58,1.32,1.58A7.82,7.82,0,0,0,497.83,171.69Z" fill="#1f2730"/>
      <path d="M497.27,168.57a1.14,1.14,0,0,1-2.28-.1,1.14,1.14,0,1,1,2.28.1Z" fill="#bf7968"/>
      <path d="M470.12,188.33a57.9,57.9,0,0,0,7.34,1.56c3.37.09,3.41-11.59,12.9-13.17l2.17-.4a3.44,3.44,0,0,0,2.45,1c2.73.07,3.36-.9,3.36-1.28a19.39,19.39,0,0,1,7.1,3.24c1.85,1.61,4.9,5.44,7.24,12.8.34,1.08,1.06,6.13-1.32,7.18-2.22,1-5.59-.72-6.87-3.29,0,0,4.32,29.45,3.11,36.76-.21,1.26-8.71,1.89-15.7,1.64-.48,0-.82-15.8-.82-15.8s-1,15.71-1.24,15.69c-3.71-.25-6.77-.82-7.7-1.8,0,0,2.57-35.61,2.76-39-1.19,1.53-3,3.72-5,4.32-3.17.94-7.78-1.61-10.93-6.52A6,6,0,0,0,470.12,188.33Z" fill="#ffe2b5"/>
      <path d="M504.35,195.89a18.65,18.65,0,0,1-1.07-12.51,18,18,0,0,1,1.28-3.39c0-.08.16,0,.12.07a18.54,18.54,0,0,0-1.38,12.37,18.36,18.36,0,0,0,1.17,3.39c0,.08-.08.15-.12.07Z" fill="#ffcd7f"/>
      <path d="M487.14,179.45a15.66,15.66,0,0,0-1.54,6.22c-.19,2.24-.56,7.77-.57,7.93s-.15.07-.14,0c.17-2.28.11-1.95.28-4.23a56.83,56.83,0,0,1,.65-6.49,12.37,12.37,0,0,1,1.18-3.45c0-.06.17,0,.14,0Z" fill="#ffcd7f"/>
      <path d="M504.36,195.9a6.39,6.39,0,0,1-.22-2,6.22,6.22,0,0,1,.24-2c0-.09.17-.05.14,0a6,6,0,0,0-.23,2,6.4,6.4,0,0,0,.21,2c0,.08-.11.12-.14,0Z" fill="#ffcd7f"/>
      <path d="M510.45,189.6a7.84,7.84,0,0,0-3.33-.83.07.07,0,0,1,0-.14,8.1,8.1,0,0,1,3.41.85c.08,0,0,.17-.08.12Z" fill="#ffcd7f"/>
      <path d="M499.54,176.38c-.41-.13-.81-.24-1.2-.34,0,.38-.63,1.35-3.36,1.28a3.44,3.44,0,0,1-2.45-1l-1,.19,2.12,7.88Z" fill="#fff"/>
      <path d="M498.31,206.38a3.26,3.26,0,0,1-1.6-.2,4.64,4.64,0,0,1,0-1.88s0-.07.09-.08l6.94-.14v.18l-6.86.14a4.22,4.22,0,0,0,0,1.67c.21.26,3.65.11,6.86-.18a.09.09,0,0,1,.1.08.1.1,0,0,1-.08.1C503,206.14,500.14,206.38,498.31,206.38Z" fill="#ffcd7f"/>
      <path d="M491.08,218.66h0a.09.09,0,0,1-.1-.09c.42-25.08,2.25-33.14,2.27-33.22a.08.08,0,0,1,.1-.07.09.09,0,0,1,.07.11c0,.08-1.84,8.13-2.25,33.18A.1.1,0,0,1,491.08,218.66Z" fill="#ffcd7f"/>
      <path d="M493.91,185.1a.08.08,0,0,1-.07,0,.09.09,0,0,1,0-.12l5-3.94-.83-.72s0-.05,0-.07a.08.08,0,0,1,.05-.07l2-1.07-.4-2.4a.09.09,0,0,1,.07-.11.11.11,0,0,1,.11.08l.41,2.47a.08.08,0,0,1-.05.09l-2,1,.81.71a.08.08,0,0,1,0,.07.09.09,0,0,1,0,.07l-5.12,4Z" fill="#ffcd7f"/>
      <path d="M492.9,185.1a.07.07,0,0,1-.07,0l-3.37-4.17a.09.09,0,0,1,0-.13l1-.82-1-1.35a.11.11,0,0,1,0-.11l1.2-1.53a.08.08,0,0,1,.12,0,.1.1,0,0,1,0,.13l-1.15,1.47,1,1.37a.08.08,0,0,1,0,.12l-1,.82L493,185a.09.09,0,0,1,0,.13Z" fill="#ffcd7f"/>
      <path d="M498.34,187.53c0-.12-.11-.29-.15-.42a.85.85,0,0,1,.06-.82.5.5,0,0,1,.66,0c-.23-.35-.51-.9-.37-1.25s.42-.21.64-.09a1.16,1.16,0,0,1-.14-1.09c.17-.3.46-.23.72-.09a4.46,4.46,0,0,1,1,1,3.88,3.88,0,0,0,1.81.93,4.5,4.5,0,0,0,.49.14c.23,0,.18,0,.08-.18s-.34-.58-.52-.87-.59-.74-.34-1.08.63,0,.85.14a5.18,5.18,0,0,1,1.29,1.31,7.69,7.69,0,0,1,.49,1.78,2.53,2.53,0,0,0,.47.89,5,5,0,0,0,1.11.91,2.07,2.07,0,0,1,.42,2.41c-.35.77-1.35,1.29-1.91,1-.37-.16-.49-.52-.84-.86a2.7,2.7,0,0,0-1.31-.67c-.55-.16-1.13-.15-1.68-.33a6.51,6.51,0,0,1-2.51-1.59c-.23-.23-.57-.54-.47-.9C498.18,187.69,498.33,187.6,498.34,187.53Z" fill="#bf7968"/>
      <path d="M444.35,145.43h31.29a0,0,0,0,1,0,0v40.86a1,1,0,0,1-1,1H445.38a1,1,0,0,1-1-1V145.43A0,0,0,0,1,444.35,145.43Z" fill="#acdfe7"/>
      <rect fill="#345c86" height="5.97" rx=".46" width="33.02" x="443.49" y="140.53"/>
      <rect fill="#87c1ca" height=".45" width="31.29" x="444.35" y="183.91"/>
      <path d="M468.26,179.39H451.73a1.35,1.35,0,0,1-1.35-1.35h0a1.35,1.35,0,0,1,1.35-1.34h16.53A1.34,1.34,0,0,1,469.6,178h0A1.34,1.34,0,0,1,468.26,179.39Z" fill="#4c749f"/>
      <rect fill="#87c1ca" height=".45" width="31.29" x="444.35" y="148.36"/>
      <path d="M469.05,162.66A9.06,9.06,0,1,1,460,153.6,9.05,9.05,0,0,1,469.05,162.66Z" fill="#f3f8fd"/>
      <path d="M466,158.44a3.93,3.93,0,0,0-5.08-.25,1.75,1.75,0,0,1-1.81.39,3.1,3.1,0,0,1-1.93-2,6.06,6.06,0,0,1-.29-2.43,9.72,9.72,0,0,0-1.09.48,6.44,6.44,0,0,0,2.56,5.4c1.49,1.31.87,5.66-1.72,5.34-.93-.11-1.14-1.59-2.79-1.5a3.66,3.66,0,0,0-2.55,1.4,8,8,0,0,0,.56,1.43,2.9,2.9,0,0,1,1.45-.81c1-.23,1.94.81,2.28,1.31.63.93,1.71,3.09,5.07,2.39a8,8,0,0,0,5.27-4.22C466.87,163.58,467.52,160,466,158.44Z" fill="#f7a8b9"/>
      <path d="M151.87,86.42h64.67a1.68,1.68,0,0,1,1.68,1.68v88.8a1.67,1.67,0,0,1-1.67,1.67H151.87a1.68,1.68,0,0,1-1.68-1.68V88.09A1.68,1.68,0,0,1,151.87,86.42Z" fill="#9bc5f2"/>
      <path d="M151.87,87.09h64.67a1,1,0,0,1,1,1v88.8a1,1,0,0,1-1,1H151.88a1,1,0,0,1-1-1V88.09A1,1,0,0,1,151.87,87.09Z" fill="#daeafb"/>
      <path d="M192.79,83.92h-5v0a3.56,3.56,0,0,0-7.12,0v0h-5A1.63,1.63,0,0,0,174,85.54v3.13a1.63,1.63,0,0,0,1.62,1.62h17.16a1.63,1.63,0,0,0,1.62-1.62V85.54A1.63,1.63,0,0,0,192.79,83.92Z" fill="#4c749f"/>
      <path d="M186.64,83.87a2.43,2.43,0,1,1-2.43-2.43A2.43,2.43,0,0,1,186.64,83.87Z" fill="#44688f"/>
      <path d="M160.56,120.29a.81.81,0,0,0-.81.81v8.64a.81.81,0,0,0,.81.81h8.64a.81.81,0,0,0,.81-.81V121.1a.81.81,0,0,0-.81-.81Zm8.64,10.8h-8.64a1.34,1.34,0,0,1-1.35-1.35V121.1a1.34,1.34,0,0,1,1.35-1.35h8.64a1.34,1.34,0,0,1,1.35,1.35v8.64A1.34,1.34,0,0,1,169.2,131.09Z" fill="#9bc5f2"/>
      <rect fill="#f9d9e0" height="7.65" rx=".91" width="7.65" x="161.05" y="121.6"/>
      <path d="M160.56,138.85a.82.82,0,0,0-.81.82v8.64a.81.81,0,0,0,.81.81h8.64a.81.81,0,0,0,.81-.81v-8.64a.82.82,0,0,0-.81-.82Zm8.64,10.81h-8.64a1.34,1.34,0,0,1-1.35-1.35v-8.64a1.35,1.35,0,0,1,1.35-1.36h8.64a1.35,1.35,0,0,1,1.35,1.36v8.64A1.34,1.34,0,0,1,169.2,149.66Z" fill="#9bc5f2"/>
      <path d="M167.8,140.16H162a.91.91,0,0,0-.91.91v5.83a.91.91,0,0,0,.91.91h5.84a.91.91,0,0,0,.91-.91v-5.83A.91.91,0,0,0,167.8,140.16Z" fill="#9bc5f2"/>
      <path d="M160.56,157.42a.81.81,0,0,0-.81.81v8.65a.8.8,0,0,0,.81.8h8.64a.8.8,0,0,0,.81-.8v-8.65a.81.81,0,0,0-.81-.81Zm8.64,10.81h-8.64a1.35,1.35,0,0,1-1.35-1.35v-8.65a1.35,1.35,0,0,1,1.35-1.35h8.64a1.35,1.35,0,0,1,1.35,1.35v8.65A1.35,1.35,0,0,1,169.2,168.23Z" fill="#9bc5f2"/>
      <path d="M167.8,158.73H162a.91.91,0,0,0-.91.91v5.83a.91.91,0,0,0,.91.91h5.84a.91.91,0,0,0,.91-.91v-5.83A.91.91,0,0,0,167.8,158.73Z" fill="#ffe2b5"/>
      <path d="M196.48,127.21a.18.18,0,0,1-.18-.18v-.36a.18.18,0,0,1,.18-.17H209a.17.17,0,0,1,.17.17V127a.17.17,0,0,1-.17.18Zm-19.57,0a.18.18,0,0,1-.18-.18v-.36a.18.18,0,0,1,.18-.17h17a.18.18,0,0,1,.18.17V127a.18.18,0,0,1-.18.18Zm11.83-2.87a.17.17,0,0,1-.17-.17v-.36a.18.18,0,0,1,.17-.18H209a.17.17,0,0,1,.17.18v.36a.16.16,0,0,1-.17.17Zm-11.83,0a.17.17,0,0,1-.18-.17v-.36a.18.18,0,0,1,.18-.18H186a.18.18,0,0,1,.18.18v.36a.17.17,0,0,1-.18.17Z" fill="#fff"/>
      <path d="M176.91,145.78a.18.18,0,0,1-.18-.18v-.36a.18.18,0,0,1,.18-.18H209a.17.17,0,0,1,.17.18v.36a.18.18,0,0,1-.17.18Zm15.88-2.87a.18.18,0,0,1-.17-.18v-.36a.17.17,0,0,1,.17-.17H209a.17.17,0,0,1,.17.17v.36a.17.17,0,0,1-.17.18Zm-15.88,0a.18.18,0,0,1-.18-.18v-.36a.18.18,0,0,1,.18-.17H190.1a.18.18,0,0,1,.17.17v.36a.18.18,0,0,1-.17.18Z" fill="#fff"/>
      <path d="M185.14,164.34a.18.18,0,0,1-.17-.17v-.36a.18.18,0,0,1,.17-.18H209a.17.17,0,0,1,.17.18v.36a.16.16,0,0,1-.17.17Zm-8.23,0a.18.18,0,0,1-.18-.17v-.36a.18.18,0,0,1,.18-.18h5.44a.17.17,0,0,1,.17.18v.36a.17.17,0,0,1-.17.17Zm25-2.86a.18.18,0,0,1-.17-.18v-.36a.16.16,0,0,1,.17-.17H209a.16.16,0,0,1,.17.17v.36a.17.17,0,0,1-.17.18Zm-25,0a.18.18,0,0,1-.18-.18v-.36a.17.17,0,0,1,.18-.17h22.22a.16.16,0,0,1,.17.17v.36a.18.18,0,0,1-.17.18Z" fill="#fff"/>
      <path d="M177.55,108.45a.34.34,0,0,1-.35-.34v-.7a.34.34,0,0,1,.35-.34h29.32a.34.34,0,0,1,.34.34v.7a.34.34,0,0,1-.34.34Zm-16,0a.34.34,0,0,1-.35-.34v-.7a.34.34,0,0,1,.35-.34h10.56a.34.34,0,0,1,.34.34v.7a.34.34,0,0,1-.34.34Zm31.49-5.57a.34.34,0,0,1-.34-.34v-.69a.34.34,0,0,1,.34-.34h13.82a.34.34,0,0,1,.34.34v.69a.34.34,0,0,1-.34.34Zm-31.49,0a.34.34,0,0,1-.35-.34v-.69a.34.34,0,0,1,.35-.34h26.07a.34.34,0,0,1,.34.34v.69a.34.34,0,0,1-.34.34Z" fill="#4c749f"/>
      <polygon fill="#bf7968" points="84.64 338.81 88.45 338.79 88.27 343.95 84.87 343.89 84.64 338.81"/>
      <path d="M84.3,345.86v-1.14a3.59,3.59,0,0,1,.13-1l.19-.7h0l0-.11a.28.28,0,0,1,.47-.11l.17.19a1.85,1.85,0,0,0,2.63-.11h0l-.08-.38a1,1,0,0,1,.35-1,.32.32,0,0,1,.36,0l1.64,1.26,0,.05.08.05,0,0h0l.63.44.38.22,0,0,.07,0h0l.16.09,0,0,.51.24h0l.12.05.1,0,.33.13.1,0h0l.09,0a8.68,8.68,0,0,0,1,.27l1.33.28a1.24,1.24,0,0,1,1,1.22h0v.05a2,2,0,0,1-.22.77v0h0a1.7,1.7,0,0,1-1.33.85h-.12l-9.28.05a.92.92,0,0,1-1-.78c0-.07,0-.19.08-.19l-.08-.45A3.31,3.31,0,0,1,84.3,345.86Z" fill="#1f2730"/>
      <polygon fill="#bf7968" points="96.34 338.43 100.16 338.42 99.98 343.57 96.57 343.52 96.34 338.43"/>
      <path d="M96,345.48v-1.14a3.86,3.86,0,0,1,.13-1l.19-.71h0l0-.1a.27.27,0,0,1,.47-.11l.16.18a1.87,1.87,0,0,0,2.64-.11h0l-.09-.38a1,1,0,0,1,.35-1,.3.3,0,0,1,.36,0l1.64,1.27.06,0,.07.06,0,0h0l.63.43.38.23,0,0,.08.05h0a.91.91,0,0,0,.17.09l0,0,.5.24h0l.12.05.1,0,.34.13.1,0h0l.1,0c.32.1.65.19,1,.26l1.34.28a1.25,1.25,0,0,1,1,1.22h0v.05a1.68,1.68,0,0,1-.22.77v0h0a1.68,1.68,0,0,1-1.33.86h-.12l-9.28.05a.93.93,0,0,1-1-.78c0-.08,0-.18.09-.19l-.09-.45A3.29,3.29,0,0,1,96,345.48Z" fill="#1f2730"/>
      <path d="M82.19,294.89l21.46-.29c.45,4.11,1.38,20.6-2.77,45.71a15.32,15.32,0,0,1-3.37.34,10.17,10.17,0,0,1-1.62-.29L94,302.85s-3.76,32.22-4.81,37.51a18.44,18.44,0,0,1-2.18.11c-1.3,0-2.7-.22-2.7-.22C81.88,324.74,82.94,313,82.19,294.89Z" fill="#4c749f"/>
      <path d="M74.68,280.32c-.31,4.12.68,5.58,7.47,5.58a89.79,89.79,0,0,0-.62,14.87c13.8,2.12,23.42-.41,23.42-.41,0-8.63-1.23-12.22-1.91-19.39,0-.32-.49-2.81.94-3,1.28-.2,4.47,1.84,4.47,1.84s2.58-3.12,2.23-3.46a41.29,41.29,0,0,1-8.33-11.75c-1.1-2-2.6-3.08-7.6-4.24l-6-.28c-3.11.48-7.86,2-9.37,4.29C77.74,266.83,75.31,272.15,74.68,280.32Zm8.41-7.12a30.82,30.82,0,0,1,0,6,7.11,7.11,0,0,1-1.39-.41C81.93,276.37,82.6,275.37,83.09,273.2Z" fill="#ffe2b5"/>
      <path d="M91.45,280.61l-.07,4a10.29,10.29,0,0,1,4.65.77l1.78-5.95C95.9,279.16,93.59,280.77,91.45,280.61Z" fill="#bf7968"/>
      <path d="M94.34,286.79a1.14,1.14,0,0,0,1.15,1.35h12.82a1.63,1.63,0,0,0,1.56-1.35l2.74-18.15a1.13,1.13,0,0,0-1.15-1.34H98.67a1.62,1.62,0,0,0-1.56,1.34Z" fill="#3c5979"/>
      <path d="M93.13,265.26c-1.09,0-7-3-7-4.5a.68.68,0,0,1,0-.15,21.8,21.8,0,0,1,2.61-.57l6,.28c.73.17,1.38.34,2,.51C96.65,262.26,94,265.26,93.13,265.26Z" fill="#fff"/>
      <path d="M88.35,260.11c.33-2.11.6-4.72.6-4.72s.29-2.38.31-3.21c.1-3.43,3.34-6.39,6.1-6.27s4.51,2.9,4.29,6.32c-.21,3.2-2.2,6.74-4.83,6.48l.05,1.63s-.14,1-1.82,1.1C89.33,261.73,88.35,260.11,88.35,260.11Z" fill="#bf7968"/>
      <path d="M88.85,256.3c-2.48-.55-1.65-5-1.58-6.61.07-1.84.13-3.79,1.69-5.05,2.58-2.08,4.27-1.39,6.2-1.2,7.8.77,4.4,6.83,4.4,6.83-.28-.69-.81-2.28-.81-2.28-2.63,2.36-5.56,1.07-6.85,3.72,0,.07-1.42,1.63-1.42,1.63A9,9,0,0,0,88.85,256.3Z" fill="#1f2730"/>
      <path d="M89.72,252.4a1.16,1.16,0,1,0,1-1.3A1.18,1.18,0,0,0,89.72,252.4Z" fill="#bf7968"/>
      <path d="M91,252.06a.89.89,0,0,0-.41-.33s-.07,0-.08,0a.08.08,0,0,0,0,.09.79.79,0,0,1,.31.23.34.34,0,0,0-.25.17.36.36,0,0,0,0,.32.33.33,0,0,0,.12.14.06.06,0,0,0,.09,0,.07.07,0,0,0,0-.09h0l0,0s0,0,0,0,0,0,0,0l0,0a0,0,0,0,0,0,0h0v-.05h0v-.06h0v0s0,0,0,0h0v0h0l0,0h0l0,0h0l.05,0h0a1,1,0,0,1,.1.38c0,.09.14.09.13,0A1,1,0,0,0,91,252.06Z" fill="#bf7968"/>
      <path d="M91.36,280.66c-.76-.12-1.53-.14-2.31-.2a21,21,0,0,1-2.22-.28c-1.25-.22-2.48-.55-3.7-.88a.07.07,0,0,1,0-.13c1.22.34,2.45.67,3.7.89a22.07,22.07,0,0,0,2.31.28c.74.06,1.48.08,2.22.19.08,0,0,.14,0,.13Z" fill="#ffcd7f"/>
      <path d="M91.32,284.71a10.7,10.7,0,0,1-1.49.33c-.73.13-1.47.23-2.2.33-1.43.2-2.87.37-4.3.51a6.56,6.56,0,0,1-1.08.09c-.08,0-.09-.14,0-.13a5.34,5.34,0,0,0,.89-.07c.61,0,1.23-.12,1.84-.19,1.53-.18,3.06-.37,4.57-.62a13.15,13.15,0,0,0,1.74-.37c.08,0,.11.1,0,.12Z" fill="#ffcd7f"/>
      <path d="M81.64,278.91a3.79,3.79,0,0,0-2.11,1.65c0,.07-.15,0-.11-.07a3.91,3.91,0,0,1,2.16-1.7c.07,0,.14.08.06.12Z" fill="#ffcd7f"/>
      <polygon fill="#ffcd7f" points="85.57 269.56 89.5 269.58 89.72 270.26 85.88 270.37 85.57 269.56"/>
      <path d="M112.4,271.78c-.76-.29-2.56-.76-2.83-.15-.21.46.37.74,2.3,1.27-.11.43-2.82-.85-3.18.62-.27.23-.94.74.06,1.5-1.37.52,1,1.82,2.64,1.54l-.1.77a1.71,1.71,0,0,0,.93-.92c.27-.51.07-.83.52-1.26s0-.91.27-1.17c.46-.5-.22-.76-.08-1C113.45,272.34,113.23,272.09,112.4,271.78Z" fill="#bf7968"/>
      <path d="M333.32,332.14c0-.93.17-1.93-.58-2.51a4.85,4.85,0,0,0-2.95-.51,8,8,0,0,0-2.45.2c-1,.4-.89,1.83-.86,2.82h-1.19c0-1.12-.07-2.87.75-3.61s2.76-.63,3.86-.64,3-.11,3.89.69.73,2.44.72,3.56Z" fill="#101418"/>
      <path d="M333.71,331.8c0-.93.17-1.92-.59-2.51a4.89,4.89,0,0,0-2.94-.51,8.36,8.36,0,0,0-2.46.2c-1,.4-.88,1.84-.86,2.82h-1.18c0-1.12-.08-2.87.74-3.61s2.77-.63,3.87-.64,3-.11,3.89.69.72,2.44.71,3.56Z" fill="#1f2730"/>
      <path d="M315.11,331.61h30.75a.41.41,0,0,1,.41.41v10.23a9,9,0,0,1-9,9H323.68a9,9,0,0,1-9-9V332A.41.41,0,0,1,315.11,331.61Z" fill="#4c749f" transform="rotate(180 330.485 341.41)"/>
      <path d="M341.73,352.16h.65a.94.94,0,0,0,.94-.94h-2.53A.94.94,0,0,0,341.73,352.16Z" fill="#1f2730"/>
      <path d="M319,352.16h.64a.94.94,0,0,0,.95-.94H318A1,1,0,0,0,319,352.16Z" fill="#1f2730"/>
      <path d="M324.83,342.43a5.66,5.66,0,1,0,5.66-5.66A5.65,5.65,0,0,0,324.83,342.43Z" fill="#9bc5f2"/>
      <polygon fill="#fff" opacity=".8" points="329.62 341.6 329.62 338.38 331.35 338.38 331.35 341.6 334.53 341.6 334.53 343.31 331.35 343.31 331.35 346.47 329.62 346.47 329.62 343.31 326.44 343.31 326.44 341.6 329.62 341.6"/>
      <path d="M335.92,331.61h.92a.38.38,0,0,0-.39-.39h-.15a.38.38,0,0,0-.38.39Z" fill="#1f2730"/>
      <path d="M323.76,331.61h.93a.39.39,0,0,0-.39-.39h-.15a.39.39,0,0,0-.39.39Z" fill="#1f2730"/>
      <path d="M346.11,349.6l-10.56,0-16.8.05h-3.83a.05.05,0,1,1,0-.1l10.56,0,16.8-.06h3.83a.06.06,0,0,1,0,.11Z" fill="#3c5979"/>
    </g>
  </g>
</svg>