<?xml version="1.0" encoding="utf-8"?>
<svg xmlns="http://www.w3.org/2000/svg" viewBox="0 0 500 400">
  <g style="isolation:isolate">
    <g>
      <path d="M58.2,344.85H441.56s21.63-89.82-2.85-135.67c-24.66-46.19-60-22.48-69.4-41.48-12.5-25.18-4.46-104-84.42-104-80.51,0-75.16,79.46-90.09,79.46-19,0-53.85-26.26-100.35-2.62C26.15,175.27,58.2,344.85,58.2,344.85Z" fill="#cfecff" opacity=".5"/>
      <path d="M49.62,344.77c0,11.07,89.15,20.05,199.13,20.05s199.13-9,199.13-20.05-89.16-20-199.13-20S49.62,333.7,49.62,344.77Z" fill="#cdecf1"/>
      <path d="M86.45,341.92s14.17-25.93,4.76-29.23C85,310.51,83,334.76,83,334.76s-.56-26.88-8.8-23.44c-6.22,2.59,2.09,22,2.09,22s-9-7.32-10.17-2.72c-1.81,7.3,8.58,11.45,8.58,11.45Z" fill="#acdfe7"/>
      <path d="M83.54,342l6.85-21.48a.21.21,0,0,0-.14-.28.22.22,0,0,0-.29.14L83.06,342Z" fill="#e8f6f9"/>
      <path d="M81.75,342l-4.91-23.43a.23.23,0,0,0-.27-.17.22.22,0,0,0-.17.27L81.29,342Z" fill="#e8f6f9"/>
      <path d="M79.22,342l-9.33-8a.23.23,0,1,0-.3.34l9,7.7Z" fill="#e8f6f9"/>
      <path d="M413.31,343.51s-11.65-17.26-4.22-23.88c4.55-4.06,6.77,8.93,6.77,8.93s2.58-24.78,11-19.56c4.1,2.56-4.52,25.42-4.52,25.42s6.13-11.89,11-8.62c7.82,5.27-10.81,17.54-10.81,17.54Z" fill="#acdfe7"/>
      <path d="M417.75,343.43l6-28.08a.27.27,0,0,0-.22-.33.28.28,0,0,0-.34.21l-6,28.21Z" fill="#e8f6f9"/>
      <path d="M421,343.37l11.1-13.49a.27.27,0,0,0,0-.39.28.28,0,0,0-.41,0l-11.4,13.85Z" fill="#e8f6f9"/>
      <path d="M415.69,343.47l-4.55-20.57a.28.28,0,0,0-.34-.22.3.3,0,0,0-.22.35l4.54,20.44Z" fill="#e8f6f9"/>
      <path d="M195.87,336.19s19.2-36.11,3.6-35.73c-6.42.16-12,28.87-12,28.87s1.26-26.2-11.57-22.09c-6.94,2.23,3.56,22.09,3.56,22.09s-9.51-12.82-14.86-9.18c-8.72,5.93,7.28,16.14,7.28,16.14Z" fill="#acdfe7"/>
      <path d="M204.29,336.16s3.38-19.12,10.82-18.79c5.32.24.52,13.18-4,18.77Z" fill="#acdfe7"/>
      <path d="M191.2,336.21l8-28.31a.37.37,0,0,1,.44-.24.36.36,0,0,1,.25.44l-7.95,28.11Z" fill="#e8f6f9"/>
      <path d="M184.58,336.24,179,313.34a.38.38,0,0,1,.27-.44.36.36,0,0,1,.43.26l5.58,23.08Z" fill="#e8f6f9"/>
      <path d="M207.8,336.14l5.12-12.77a.36.36,0,0,1,.46-.2.37.37,0,0,1,.2.47l-5,12.5Z" fill="#e8f6f9"/>
      <path d="M178.69,336.26l-10.07-11.35a.36.36,0,0,1,0-.51.35.35,0,0,1,.51,0l10.49,11.83Z" fill="#e8f6f9"/>
      <g opacity=".4">
        <path d="M150.64,286a1.7,1.7,0,0,1-1.7-1.7V38.42a2,2,0,0,1,2-2H342.2a2,2,0,0,1,2,2V284.33a1.7,1.7,0,0,1-1.7,1.7Z" fill="#fff"/>
        <path d="M342.2,35.18H150.93a3.24,3.24,0,0,0-3.24,3.24V284.33a3,3,0,0,0,2.95,2.95H342.49a3,3,0,0,0,2.95-2.95V38.42A3.24,3.24,0,0,0,342.2,35.18Zm.74,249.15a.45.45,0,0,1-.45.45H150.64a.45.45,0,0,1-.45-.45V38.42a.74.74,0,0,1,.74-.74H342.2a.75.75,0,0,1,.74.74Z" fill="#c8dff8"/>
      </g>
      <path d="M150.93,35.18H342.2a3.24,3.24,0,0,1,3.24,3.24v7.43H147.69V38.42A3.24,3.24,0,0,1,150.93,35.18Z" fill="#9bc5f2"/>
      <path d="M166.34,40.53a2.31,2.31,0,1,0,2.3-2.3A2.31,2.31,0,0,0,166.34,40.53Z" fill="#ffe2b5"/>
      <path d="M158.74,40.52a2.31,2.31,0,1,0,2.31-2.3A2.31,2.31,0,0,0,158.74,40.52Z" fill="#f6c4cf"/>
      <path d="M151.15,40.5a2.31,2.31,0,1,0,2.31-2.3A2.31,2.31,0,0,0,151.15,40.5Z" fill="#acdfe7"/>
      <path d="M179.5,58.65H200a.94.94,0,0,1,.94.94v.93a.93.93,0,0,1-.93.93H179.5a.93.93,0,0,1-.93-.93v-.93A.94.94,0,0,1,179.5,58.65Z" fill="#acdfe7"/>
      <path d="M159.42,58.65h15.79a.94.94,0,0,1,.94.94v.93a.93.93,0,0,1-.93.93H159.42a.94.94,0,0,1-.94-.94v-.93A.93.93,0,0,1,159.42,58.65Z" fill="#acdfe7"/>
      <path d="M159.42,54H212.3a.94.94,0,0,1,.94.94v.94a.94.94,0,0,1-.94.94H159.42a.93.93,0,0,1-.93-.93v-.94A.94.94,0,0,1,159.42,54Z" fill="#acdfe7"/>
      <path d="M336.53,54.79a.4.4,0,0,1-.39.39H292.93a.39.39,0,0,1-.39-.39V54.4a.38.38,0,0,1,.39-.39h43.21a.39.39,0,0,1,.39.39Zm0,2.72a.4.4,0,0,0-.39-.39H307.51a.39.39,0,0,0-.39.39v.39a.39.39,0,0,0,.39.4h28.63a.4.4,0,0,0,.39-.4Zm-41.74,3.12a.39.39,0,0,0-.4-.39H269.72a.39.39,0,0,0-.4.39V61a.4.4,0,0,0,.4.39h24.67a.4.4,0,0,0,.4-.39Zm-4.44-6.23A.39.39,0,0,0,290,54H269.72a.39.39,0,0,0-.4.39v.39a.4.4,0,0,0,.4.39H290a.4.4,0,0,0,.39-.39Zm14.75,3.11a.4.4,0,0,0-.39-.39h-35a.4.4,0,0,0-.4.39v.39a.4.4,0,0,0,.4.4h35a.4.4,0,0,0,.39-.4Z" fill="#9bc5f2" opacity=".9"/>
      <path d="M336.53,64.44a.39.39,0,0,1-.39.39H297.33a.38.38,0,0,1-.39-.39v-.39a.39.39,0,0,1,.39-.39h38.81a.4.4,0,0,1,.39.39Zm0,2.73a.4.4,0,0,0-.39-.4H269.72a.4.4,0,0,0-.4.4v.39a.4.4,0,0,0,.4.39h66.42a.4.4,0,0,0,.39-.39Zm-41.74-3.12a.4.4,0,0,0-.4-.39H269.72a.4.4,0,0,0-.4.39v.39a.39.39,0,0,0,.4.39h24.67a.39.39,0,0,0,.4-.39Zm41.74,3.12a.4.4,0,0,0-.39-.4H269.72a.4.4,0,0,0-.4.4v.39a.4.4,0,0,0,.4.39h66.42a.4.4,0,0,0,.39-.39Zm-28.34,3.11a.38.38,0,0,0-.39-.39H269.72a.39.39,0,0,0-.4.39v.39a.4.4,0,0,0,.4.39H307.8a.39.39,0,0,0,.39-.39Z" fill="#9bc5f2" opacity=".9"/>
      <path d="M203.7,268.41a.35.35,0,0,1-.34.34H189.8a.34.34,0,0,1-.34-.34v-.34a.34.34,0,0,1,.34-.34h13.56a.35.35,0,0,1,.34.34Zm0,2.35a.34.34,0,0,0-.34-.34H178.52a.34.34,0,0,0-.34.34v.33a.34.34,0,0,0,.34.34h24.84a.34.34,0,0,0,.34-.34Zm-16.18-2.69a.34.34,0,0,0-.33-.34H158.82a.34.34,0,0,0-.33.34v.34a.34.34,0,0,0,.33.34h28.37a.34.34,0,0,0,.33-.34Zm-11.28,2.69a.34.34,0,0,0-.34-.34H158.82a.33.33,0,0,0-.33.34v.33a.33.33,0,0,0,.33.34H175.9a.34.34,0,0,0,.34-.34Zm4.72,2.68a.34.34,0,0,0-.34-.34h-21.8a.33.33,0,0,0-.33.34v.34a.34.34,0,0,0,.33.34h21.8a.34.34,0,0,0,.34-.34Z" fill="#9bc5f2" opacity=".9"/>
      <path d="M289,109.31h0L294.4,102a1,1,0,0,0-.09-1.31l-4.1-4.1a1,1,0,0,0-1.52.12l-4.76,6.58a23.38,23.38,0,0,0-7-4.59v.06l1.41-7.6a1.5,1.5,0,0,0-1.3-1.76l-4.78-.58a1.51,1.51,0,0,0-1.66,1.23l-1.3,7.27,0,0c-6,.08-12.8,2.78-20.63,8.93-53.2,41.83-73.16,41.49-70,93.57,0,0,19,68,57.83,71.66s65.77-49,69.46-69.38C308.42,188.74,305.93,133.89,289,109.31Z" fill="#f7a8b9"/>
      <path d="M264.28,125.1s29.48-11.85,39.88-16.11c9.19-3.77,14.94,14.34,9.19,17.72C298.77,135.27,278,150.87,278,150.87Z" fill="#f6c4cf"/>
      <path d="M180.88,89.4s-3.49-2.37,7.74-10.09c10.51-7.23,12-2.91,12-2.91l16.16,26.26s11.49-13.23,16.2-22.58C234.52,77,248.1,76.4,256,85.77a3.7,3.7,0,0,1,.11,4.76c-3.09,3.8-8.18,11.85-3.32,19.44,6.65,10.38,33.15,34.65,27.84,71.11s-83.79,27.49-87.33,15.34-9.77-34.5-9.77-34.5,12.35-34.85,12-45.79S180.88,89.4,180.88,89.4Z" fill="#f6c4cf"/>
      <path d="M293,233.33c-1.29-19.52-6.06-50.64-22.86-65.13-21.45-18.49-65.88-35.46-88-3-3.28,8.63-7.78,20.41-3.29,37.13,6,22.23,27.66,68.33,57.7,69.1C261.11,272.11,280.8,253.64,293,233.33Z" fill="#f8b1c0"/>
      <path d="M259.6,160.48c.21.85.32,1.68.44,2.5s.21,1.62.28,2.43a36.43,36.43,0,0,1,.07,4.9,28.7,28.7,0,0,1-2.07,9.57,22.69,22.69,0,0,1-2.38,4.32,23.77,23.77,0,0,1-3.25,3.67,79.45,79.45,0,0,1-7.48,6c-5.13,3.79-10.39,7.37-15.25,11.46a49,49,0,0,0-6.72,6.71,22.91,22.91,0,0,0-2.54,4,12.76,12.76,0,0,0-1.29,4.56,12.8,12.8,0,0,1,1.17-4.61,22.77,22.77,0,0,1,2.45-4.11,49.79,49.79,0,0,1,6.59-7c4.77-4.25,10-8,15-11.89a82,82,0,0,0,7.2-6.16,23.13,23.13,0,0,0,3-3.54,20.91,20.91,0,0,0,2.11-4.1,27,27,0,0,0,1.7-9,34.24,34.24,0,0,0-.2-4.64c-.08-.77-.19-1.54-.32-2.3s-.3-1.53-.49-2.22l-.69-2.27Z" fill="#f9d9e0"/>
      <path d="M260.12,169.08a23.52,23.52,0,0,1-1.19,3.46,16.27,16.27,0,0,1-1.78,3.21,7.59,7.59,0,0,1-2.78,2.49,4.82,4.82,0,0,1-1.86.47c-.64,0-1.21,0-1.82-.06-2.38-.16-4.73-.46-7.1-.64a32.19,32.19,0,0,0-3.54-.09,10.43,10.43,0,0,0-1.76.2,3.79,3.79,0,0,0-1.6.71,3.73,3.73,0,0,1,1.58-.78,10.71,10.71,0,0,1,1.77-.29,32.72,32.72,0,0,1,3.57-.06c2.38.07,4.75.27,7.11.32.58,0,1.2,0,1.74,0a4,4,0,0,0,1.55-.48,6.74,6.74,0,0,0,2.37-2.32,19.51,19.51,0,0,0,2.51-6.39Z" fill="#f9d9e0"/>
      <path d="M259.16,176.63a37.12,37.12,0,0,0,1.68,7.22c.1.29.21.59.33.87s.23.57.36.84c.26.56.55,1.14.8,1.73a25.33,25.33,0,0,1,1.27,3.61,14.79,14.79,0,0,1,.5,3.8,11.15,11.15,0,0,1-.18,1.92,10.54,10.54,0,0,1-.55,1.84,9.85,9.85,0,0,1-2.13,3.15,13.91,13.91,0,0,1-3,2.26,11.27,11.27,0,0,0,4.85-5.52,9.49,9.49,0,0,0,.45-1.8,11.35,11.35,0,0,0,.1-1.84,14.5,14.5,0,0,0-.65-3.63,22.78,22.78,0,0,0-1.38-3.45c-.27-.56-.57-1.09-.86-1.67q-.23-.44-.42-.87c-.13-.3-.25-.59-.37-.89a31.72,31.72,0,0,1-1.19-3.65c-.33-1.23-.61-2.47-.82-3.75Z" fill="#f9d9e0"/>
      <path d="M246.42,192.48a22.52,22.52,0,0,0-6.29-1,26.31,26.31,0,0,0-6.38.61c-1,.23-2.08.51-3.13.78s-2.08.52-3.13.76c-2.1.49-4.2,1-6.32,1.31,2.12-.38,4.21-.89,6.29-1.41,1-.26,2.09-.54,3.12-.82s2.07-.58,3.13-.83a26.67,26.67,0,0,1,6.42-.71,22.31,22.31,0,0,1,6.43.91Z" fill="#f9d9e0"/>
      <path d="M242.7,195.57a22.57,22.57,0,0,1-.85,6.44,27,27,0,0,1-2.42,6c-.52.95-1.09,1.86-1.64,2.79s-1.09,1.85-1.63,2.78c-1.06,1.87-2.12,3.74-3,5.68.9-1.95,1.92-3.85,3-5.73.52-.94,1.05-1.88,1.58-2.81s1.09-1.86,1.6-2.81a26.71,26.71,0,0,0,2.3-6,23,23,0,0,0,.74-6.33Z" fill="#f9d9e0"/>
      <path d="M261.29,185.83A17.62,17.62,0,0,1,265,187a15.63,15.63,0,0,1,3.35,2,8.51,8.51,0,0,1,1.38,1.37,12.54,12.54,0,0,1,1.06,1.62,12.91,12.91,0,0,1,1.28,3.62A13.33,13.33,0,0,0,270.7,192a10.78,10.78,0,0,0-1.1-1.57,8.15,8.15,0,0,0-1.38-1.31,15.28,15.28,0,0,0-3.34-1.83,16.88,16.88,0,0,0-3.65-1.05Z" fill="#f9d9e0"/>
      <path d="M232.33,192.34a3,3,0,0,0-.49-.92,4,4,0,0,0-.76-.78,6,6,0,0,0-1.94-1,9.41,9.41,0,0,0-1.07-.31c-.37-.08-.74-.14-1.11-.19s-.74-.08-1.12-.1l-1.13,0,1.13,0c.38,0,.76,0,1.13,0s.76.08,1.13.14a10.56,10.56,0,0,1,1.11.27,6.4,6.4,0,0,1,2.07,1,5.34,5.34,0,0,1,.85.8,3.33,3.33,0,0,1,.6,1Z" fill="#f9d9e0"/>
      <path d="M248.25,178.29a3.17,3.17,0,0,1-.61,1,4.3,4.3,0,0,1-.85.8,6.25,6.25,0,0,1-2.06,1,10.56,10.56,0,0,1-1.11.27c-.37.06-.75.1-1.13.14l-1.13.05-1.13,0,1.13,0,1.12-.09c.37-.06.74-.12,1.11-.2a9.41,9.41,0,0,0,1.07-.31,6.15,6.15,0,0,0,1.94-1,4.74,4.74,0,0,0,.76-.79,3,3,0,0,0,.49-.92v0a.22.22,0,0,1,.26-.14.21.21,0,0,1,.15.26Z" fill="#f9d9e0"/>
      <path d="M263.6,192.88a3.06,3.06,0,0,0-1,0,5,5,0,0,0-1,.32,6.41,6.41,0,0,0-1.81,1.26,9.72,9.72,0,0,0-.75.82c-.24.29-.46.6-.68.9s-.4.63-.59,1l-.53,1,.48-1c.18-.33.37-.66.56-1s.41-.63.63-.94a10,10,0,0,1,.74-.87,6.38,6.38,0,0,1,1.82-1.39,4.67,4.67,0,0,1,1.1-.4,3.41,3.41,0,0,1,1.2-.08Z" fill="#f9d9e0"/>
      <path d="M192.83,214.47a3,3,0,0,0,1,.34,5,5,0,0,0,1.09.06,6.4,6.4,0,0,0,2.13-.56c.35-.14.67-.34,1-.51s.63-.4.94-.61.6-.46.89-.7l.84-.75-.81.79c-.28.26-.57.49-.86.74s-.6.46-.92.67-.64.4-1,.56a6.65,6.65,0,0,1-2.19.68,5.09,5.09,0,0,1-1.17,0,3.35,3.35,0,0,1-1.16-.34Z" fill="#f9d9e0"/>
      <path d="M278,151a.16.16,0,0,1-.16-.12c-2.82-15-24.31-39.65-24.53-39.9a.16.16,0,0,1,0-.22.15.15,0,0,1,.22,0c.22.24,21.76,24.92,24.6,40a.16.16,0,0,1-.12.18Z" fill="#f9d9e0"/>
      <path d="M223,110.93a.16.16,0,0,1-.13-.06l-6.28-8.38a.15.15,0,0,1,0-.22.16.16,0,0,1,.22,0l6.29,8.38a.16.16,0,0,1,0,.22A.14.14,0,0,1,223,110.93Z" fill="#f9d9e0"/>
      <path d="M186.77,223.93c1.18-2.68,2.32-4.94,3.74-7.49.72-1.27,1.47-2.52,2.27-3.75.39-.61.82-1.2,1.24-1.8s.87-1.17,1.37-1.71c.25-.27.48-.56.74-.82l.79-.76c.55-.49,1.17-.93,1.73-1.35a12.28,12.28,0,0,0,2.88-3.17,18,18,0,0,0,1.86-3.91,21.82,21.82,0,0,0,1-4.22,22.33,22.33,0,0,1-.92,4.26,18.42,18.42,0,0,1-1.78,4,12.44,12.44,0,0,1-2.87,3.31l-.85.68a10.69,10.69,0,0,0-.82.69l-.76.76c-.24.26-.46.55-.7.82-.47.54-.87,1.14-1.3,1.72s-.82,1.19-1.19,1.81c-.76,1.22-1.48,2.48-2.15,3.76-1.36,2.55-2.73,5.55-3.83,8.21Z" fill="#f9d9e0"/>
      <path d="M251.6,89a24.82,24.82,0,0,1-7.74-1.54c-5.66-2-9.62-5-9-6.82s5.52-1.75,11.18.23,9.62,5,9,6.81h0C254.75,88.56,253.47,89,251.6,89Zm-13.37-9.36c-1.7,0-2.86.36-3.1,1.1-.53,1.63,3.51,4.56,8.83,6.42s10.25,2,10.79.42-3.51-4.56-8.83-6.41A24.87,24.87,0,0,0,238.23,79.63Zm16.66,8h0Z" fill="#f9d9e0"/>
      <path d="M312.76,124.5c-1.74,0-4.19-2.35-6-5.87-2-4-2.27-7.91-.55-8.77s4.66,1.64,6.7,5.7a15.26,15.26,0,0,1,1.67,5.5c.12,1.69-.28,2.85-1.12,3.27A1.55,1.55,0,0,1,312.76,124.5ZM307,110a1.31,1.31,0,0,0-.59.14c-1.54.77-1.23,4.52.69,8.35s4.77,6.32,6.28,5.56c.71-.36,1.06-1.44.95-3a15.26,15.26,0,0,0-1.64-5.39C311,112.38,308.57,110,307,110Z" fill="#f9d9e0"/>
      <path d="M361.11,171.1h0a.62.62,0,0,1-.6-.59l-3.06-54-4,44.54a.64.64,0,0,1-.61.57.62.62,0,0,1-.63-.54l-.72-5h-2.84a.63.63,0,0,1-.55-.33c-1.28-2.36-2.8-4.48-3.31-4.63-.5.09-2.39,2.24-4.06,4.69a.61.61,0,0,1-.51.27H323.46a.62.62,0,0,1-.59-.43c-1.11-3.43-2.64-6.59-3.27-6.76-.65.11-2.59,3.29-4.13,6.81a.62.62,0,0,1-.57.38h-3.44l-1.76,14.54a.62.62,0,0,1-1.24,0l-3.06-54-4,44.54a.63.63,0,0,1-.6.57.62.62,0,0,1-.64-.54l-.72-5h-2.83a.63.63,0,0,1-.55-.33c-1.29-2.35-2.81-4.48-3.31-4.63-.51.09-2.39,2.24-4.06,4.69a.63.63,0,0,1-.52.27H271.42a.62.62,0,0,1-.59-.43c-1.11-3.43-2.63-6.58-3.27-6.76-.65.11-2.59,3.29-4.12,6.81a.64.64,0,0,1-.58.38h-3.44l-1.76,14.54a.59.59,0,0,1-.64.55.62.62,0,0,1-.6-.59l-3.06-54-4,44.54a.64.64,0,0,1-.61.57.62.62,0,0,1-.64-.54l-.72-5h-2.83a.63.63,0,0,1-.55-.33c-1.29-2.35-2.8-4.48-3.31-4.63-.5.09-2.39,2.24-4.06,4.69a.63.63,0,0,1-.52.27H219.39a.65.65,0,0,1-.6-.43c-1.1-3.43-2.63-6.58-3.26-6.76-.65.11-2.59,3.29-4.13,6.81a.62.62,0,0,1-.57.38h-3.44l-1.76,14.54a.63.63,0,0,1-1.25,0l-3.06-54-4,44.54a.64.64,0,0,1-.61.57.6.6,0,0,1-.63-.54l-.72-5H192.5a.63.63,0,0,1-.55-.33c-1.29-2.35-2.8-4.48-3.31-4.63-.5.09-2.39,2.24-4.06,4.69a.61.61,0,0,1-.51.27H167.35a.62.62,0,0,1-.59-.43c-1.11-3.43-2.64-6.58-3.27-6.76-.65.11-2.59,3.29-4.13,6.81a.62.62,0,0,1-.57.38h-3.44l-1.76,14.54a.62.62,0,0,1-1.24,0l-3.06-54-4,44.54a.62.62,0,0,1-1.24,0l-.72-5h-2.84a.63.63,0,0,1-.54-.33c-1.29-2.35-2.81-4.48-3.31-4.63-.51.09-2.39,2.24-4.06,4.69a.63.63,0,0,1-.52.27H121a.63.63,0,0,1,0-1.25H131.7c1.36-2,3.64-5,5-5s2.89,2.62,4.18,5h3a.63.63,0,0,1,.62.53l0,.27,4.31-47.69a.68.68,0,0,1,.63-.57.62.62,0,0,1,.62.59l3.14,55.52,1-8.1a.61.61,0,0,1,.62-.55h3.58c1.08-2.43,3.42-7.18,5.13-7.18s3.34,4.31,4.29,7.18h15.94c1.36-2,3.64-5,4.95-5s2.88,2.62,4.18,5h3a.63.63,0,0,1,.62.53l0,.27,4.31-47.69a.69.69,0,0,1,.63-.57.62.62,0,0,1,.61.59l3.14,55.52,1-8.1a.63.63,0,0,1,.62-.55h3.59c1.08-2.43,3.41-7.18,5.13-7.18s3.34,4.31,4.29,7.18h15.93c1.37-2,3.65-5,5-5,1.16,0,2.88,2.62,4.18,5h3a.62.62,0,0,1,.61.53l0,.27,4.31-47.69a.7.7,0,0,1,.64-.57.62.62,0,0,1,.61.59l3.14,55.51,1-8.09a.62.62,0,0,1,.62-.55h3.59c1.08-2.43,3.41-7.18,5.12-7.18s3.34,4.31,4.3,7.18h15.93c1.36-2,3.64-5,4.95-5s2.89,2.62,4.19,5h3a.63.63,0,0,1,.62.53l0,.27,4.31-47.69a.62.62,0,0,1,.62-.57h0a.62.62,0,0,1,.62.59l3.14,55.52,1-8.1a.62.62,0,0,1,.62-.55h3.58c1.08-2.43,3.41-7.18,5.13-7.18s3.34,4.31,4.3,7.18h15.93c1.36-2,3.64-5,4.94-5s2.89,2.62,4.19,5h3a.63.63,0,0,1,.62.53l0,.27,4.3-47.69a.67.67,0,0,1,.64-.57.62.62,0,0,1,.61.59l3.14,55.52,1-8.1a.63.63,0,0,1,.62-.55h3.59c1.08-2.43,3.41-7.18,5.13-7.18s3.34,4.31,4.29,7.18h5.25a.63.63,0,1,1,0,1.25h-5.7a.62.62,0,0,1-.59-.43c-1.11-3.43-2.64-6.58-3.27-6.76-.65.1-2.6,3.28-4.13,6.81a.64.64,0,0,1-.58.38H363.5l-1.77,14.54A.61.61,0,0,1,361.11,171.1Z" fill="#345c86"/>
      <polygon fill="#ffa18a" points="397.25 335.26 390.65 335.22 390.96 344.14 396.85 344.05 397.25 335.26"/>
      <path d="M397.82,347.45l0-2a7.12,7.12,0,0,0-.23-1.78l-.32-1.22h0l-.05-.18a.48.48,0,0,0-.82-.19l-.28.32a3.22,3.22,0,0,1-4.55-.18h0l.14-.66a1.65,1.65,0,0,0-.61-1.69.51.51,0,0,0-.62,0l-2.83,2.18-.11.08-.12.09-.08.06h0l-1.09.75-.65.39-.08,0-.13.08,0,0-.28.15-.05,0-.88.41-.06,0-.2.09-.18.08-.58.21-.16.06h0l-.17.06a17.52,17.52,0,0,1-1.72.47l-2.31.47a2.19,2.19,0,0,0-1.73,2.12h0v.09a3.25,3.25,0,0,0,.39,1.34v0h0a2.88,2.88,0,0,0,2.3,1.48h.21l16.05.09a1.61,1.61,0,0,0,1.75-1.35c0-.13,0-.32-.15-.33l.15-.78A4.88,4.88,0,0,0,397.82,347.45Z" fill="#1f2730"/>
      <polygon fill="#ffa18a" points="377 334.61 370.4 334.57 370.71 343.48 376.6 343.4 377 334.61"/>
      <path d="M377.58,346.79v-2a6.69,6.69,0,0,0-.23-1.78l-.32-1.21h0l-.05-.18a.48.48,0,0,0-.82-.19l-.27.32a3.23,3.23,0,0,1-4.56-.19h0l.15-.65a1.7,1.7,0,0,0-.61-1.7.52.52,0,0,0-.63,0l-2.83,2.18-.1.08-.13.1-.07.06h0l-1.09.75-.65.39-.08,0-.13.07,0,0-.29.15-.05,0-.88.42,0,0-.21.09-.18.07-.57.22-.17.06h0l-.17.06a16.75,16.75,0,0,1-1.72.46l-2.31.48a2.16,2.16,0,0,0-1.72,2.11v.1a3.06,3.06,0,0,0,.38,1.34v.06h0a2.92,2.92,0,0,0,2.3,1.47h.21l16.06.09a1.6,1.6,0,0,0,1.74-1.36c0-.12,0-.31-.14-.33l.15-.78A5.75,5.75,0,0,0,377.58,346.79Z" fill="#1f2730"/>
      <path d="M401.49,259.27l-37.13-.5c-.79,7.1-2.39,35.64,4.78,79.08a26.56,26.56,0,0,0,5.84.59,16.08,16.08,0,0,0,2.79-.51l3.35-64.88s6.5,55.73,8.32,64.89a30.67,30.67,0,0,0,3.78.19c2.24-.05,4.66-.38,4.66-.38C402,310.92,400.2,290.61,401.49,259.27Z" fill="#4c749f"/>
      <path d="M406.29,206.4c-2.61-3.93-10.82-6.59-16.21-7.42l-10.33.48c-8.64,2-11.24,3.9-13.15,7.33-1.52,2.74-5.23,11.46-14.41,20.34-.6.58,3.86,6,3.86,6s5.51-3.53,7.72-3.17c2.48.39,1.7,4.69,1.64,5.25-1.18,12.4-3.31,18.61-3.31,33.55,0,0,16.65,4.38,40.53.7,0,0,.71-9.64-1.08-25.72,11.75,0,13.46-2.52,12.92-9.66C413.39,219.93,409.18,210.73,406.29,206.4Zm-3.88,25a12.45,12.45,0,0,1-2.4.72,53,53,0,0,1-.08-10.37C400.77,225.5,401.93,227.23,402.41,231.4Z" fill="#ffe2b5"/>
      <path d="M385.46,234.56l.12,7c-.43.17-4.26-.53-8,1.34l-3.1-10.3C377.76,232.05,381.77,234.84,385.46,234.56Z" fill="#ffa18a"/>
      <path d="M380.47,245.26a2,2,0,0,1-2,2.33H356.3a2.84,2.84,0,0,1-2.71-2.33l-4.74-31.4a2,2,0,0,1,2-2.33H373a2.85,2.85,0,0,1,2.71,2.33Z" fill="#3c5979"/>
      <path d="M382.56,208c1.89,0,12.07-5.27,12.07-7.79a2.06,2.06,0,0,0,0-.26,40,40,0,0,0-4.52-1l-10.33.48c-1.26.29-2.39.58-3.42.88C376.47,202.81,381,208,382.56,208Z" fill="#fff"/>
      <path d="M390.82,199.1c-.56-3.65-1-8.17-1-8.17s-.51-4.12-.54-5.55c-.18-5.93-5.78-11-10.55-10.85s-7.8,5-7.42,10.94c.36,5.53,3.8,11.65,8.35,11.21l-.08,2.82s.23,1.69,3.14,1.91C389.12,201.89,390.82,199.1,390.82,199.1Z" fill="#ffa18a"/>
      <path d="M390,192.5c4.29-.95,2.86-8.72,2.74-11.42-.13-3.2-.22-6.56-2.94-8.75-4.46-3.59-7.38-2.41-10.71-2.08-13.5,1.35-7.61,11.83-7.61,11.83.47-1.2,1.38-4,1.38-4,4.56,4.09,9.63,1.85,11.87,6.44.06.14,2.46,2.82,2.46,2.82A15.6,15.6,0,0,1,390,192.5Z" fill="#1f2730"/>
      <path d="M388.45,185.76a2,2,0,1,1-1.74-2.24A2,2,0,0,1,388.45,185.76Z" fill="#ffa18a"/>
      <path d="M386.29,185.16a1.71,1.71,0,0,1,.71-.56.12.12,0,0,1,.14.08.12.12,0,0,1-.07.14,1.28,1.28,0,0,0-.54.41.61.61,0,0,1,.44.29.65.65,0,0,1,0,.56.64.64,0,0,1-.22.24.1.1,0,0,1-.15,0,.12.12,0,0,1,0-.16h0s0,0,0,0,0,0,0,0,0,0,0,0l0,0a.08.08,0,0,0,0,0h0v0a.06.06,0,0,1,0,0v0s0,0,0,0h0v0a.43.43,0,0,0,0-.05h0a0,0,0,0,0,0,0,.06.06,0,0,0,0,0h0v0h0l0,0s0,0,0,0h0l-.07,0h-.06l-.08,0h0a1.73,1.73,0,0,0-.16.66c0,.15-.24.16-.23,0A1.93,1.93,0,0,1,386.29,185.16Z" fill="#ffa18a"/>
      <path d="M385.61,234.65c1.33-.21,2.66-.23,4-.34a38.58,38.58,0,0,0,3.85-.49c2.15-.38,4.28-.95,6.39-1.53.14,0,.08-.24-.06-.21-2.11.57-4.24,1.15-6.4,1.53-1.32.23-2.66.4-4,.5s-2.57.13-3.84.33c-.14,0-.08.23.06.21Z" fill="#ffcd7f"/>
      <path d="M385.69,241.67a21.89,21.89,0,0,0,2.58.56c1.26.22,2.53.4,3.8.57,2.48.35,5,.64,7.45.89a10.59,10.59,0,0,0,1.86.14c.14,0,.15-.23,0-.22a8.69,8.69,0,0,1-1.53-.11c-1.07-.1-2.13-.21-3.2-.34-2.64-.31-5.28-.64-7.9-1.08a21.59,21.59,0,0,1-3-.63c-.14,0-.2.17-.06.22Z" fill="#ffcd7f"/>
      <path d="M402.43,231.62a6.63,6.63,0,0,1,3.66,2.86c.06.13.25,0,.19-.11-.72-1.52-2.27-2.31-3.74-3-.13,0-.24.14-.11.2Z" fill="#ffcd7f"/>
      <polygon fill="#ffcd7f" points="395.63 215.44 388.83 215.49 388.46 216.67 395.1 216.84 395.63 215.44"/>
      <path d="M349.22,219.28c1.3-.49,4.42-1.31,4.9-.24.35.79-.64,1.27-4,2.19.18.73,4.88-1.47,5.49,1.08.48.39,1.64,1.27-.09,2.59,2.37.9-1.7,3.15-4.57,2.66l.17,1.34a3,3,0,0,1-1.61-1.61c-.47-.88-.12-1.43-.91-2.17-.57-.54,0-1.58-.45-2-.81-.87.38-1.32.12-1.66C347.4,220.26,347.78,219.83,349.22,219.28Z" fill="#ffa18a"/>
      <path d="M121.74,329.58h9.13c-.06-1.05-.1-2.09-.1-3.15a86.73,86.73,0,0,1,.89-10.79A44.36,44.36,0,0,1,134,305.57a36.37,36.37,0,0,0,1.77-5.28,15.17,15.17,0,0,0,.26-4.25l-1.32-14-11.68,14a19.36,19.36,0,0,1-.52,7.58c-.45,1.33-1,2.64-1.28,4a30.82,30.82,0,0,0-.67,4.05c-.56,5.73.28,11.5,1,17.17C121.67,329.09,121.71,329.33,121.74,329.58Z" fill="#ffa18a"/>
      <path d="M131,329.58c.1-.9.2-1.8.29-2.71a73.12,73.12,0,0,1-10.31-.11s.11,1.26.25,2.82Z" fill="#ffe2b5"/>
      <path d="M141.74,347.88a4.07,4.07,0,0,0-2-2.57c-1.77-1.2-7.29-2.76-7.88-3.3a5.14,5.14,0,0,1-1.29-4.11c.1-3.07.5-6.16.76-9.22,0,0-3.89,1-10.54-.13,0,0,.45,5.5.68,8.25a25.86,25.86,0,0,1,.13,4,27.35,27.35,0,0,1-.59,3.51,19.7,19.7,0,0,0-.5,3.49c0,.22,0,.65,0,.65.74.75,2.47.68,3.29.65a54.73,54.73,0,0,1,6.14-.27c2.68.17,5.34.61,8,.72a15,15,0,0,0,2.63-.12A1.42,1.42,0,0,0,141.74,347.88Z" fill="#101418"/>
      <path d="M106.12,329.58h9.13c-.06-1.05-.12-2.09-.1-3.15a86.72,86.72,0,0,1,.88-10.79,45.44,45.44,0,0,1,2.38-10.07,36.37,36.37,0,0,0,1.77-5.28,14.45,14.45,0,0,0,.26-4.25h-13a19.55,19.55,0,0,1-.52,7.58,40.61,40.61,0,0,0-1.28,4,30.82,30.82,0,0,0-.67,4.05c-.57,5.73.28,11.5,1,17.17C106,329.09,106.08,329.33,106.12,329.58Z" fill="#ffa18a"/>
      <path d="M115.38,329.58c.09-.9.19-1.8.28-2.71a73.06,73.06,0,0,1-10.31-.11s.11,1.26.26,2.82Z" fill="#ffe2b5"/>
      <path d="M126.12,347.88a4.05,4.05,0,0,0-2-2.57c-1.76-1.2-7.28-2.76-7.88-3.3A5.1,5.1,0,0,1,115,337.9c.1-3.07.49-6.16.75-9.22,0,0-3.88,1-10.53-.13,0,0,.45,5.5.67,8.25a19.13,19.13,0,0,1-.46,7.54,21.74,21.74,0,0,0-.5,3.49c0,.22,0,.65,0,.65.73.75,2.47.68,3.29.65a54.53,54.53,0,0,1,6.14-.27c2.68.17,5.33.61,8,.72a15.19,15.19,0,0,0,2.64-.12A1.43,1.43,0,0,0,126.12,347.88Z" fill="#1f2730"/>
      <path d="M166.79,194.79c-.6-.6-1.26.76-1.51,1.09a8,8,0,0,1-2.78,2.19c.32-.37.64-.74,1-1.09a9.88,9.88,0,0,0,.84-.87,7.38,7.38,0,0,0,.69-1.19c.18-.39.4-.76.57-1.15a.61.61,0,0,0,0-.66c-.39-.42-1,0-1.38.45a1,1,0,0,0,0-.64c-.29-.71-.92,0-1.25.27-1,.92-2,1.83-3,2.69-.44.36-1.14,1-1.6,1.28s-.79.71-.57-.25c.06-.21.17-.43.19-.5a5.78,5.78,0,0,0,.28-.63c.11-.39.13-1.27-.49-1.16-.35.06-.71.62-.9.86a10.65,10.65,0,0,0-1,1.35,5,5,0,0,0-.52,2.65,10.25,10.25,0,0,1-.55,3.72,9.19,9.19,0,0,1-.93,1.82,16.7,16.7,0,0,0-1.07,1.57s4.18,1.82,5.16,2.09c.19-2,2.15-3.4,3.42-4.81a16.87,16.87,0,0,1,1.89-1.89,12.35,12.35,0,0,0,2.07-1.66,15.42,15.42,0,0,0,1.29-2.18c.14-.27.49-.83,0-1s-.93.51-1.17.7l-.23.22c.23-.27.46-.53.67-.81C166.24,196.78,167.39,195.42,166.79,194.79Z" fill="#ffa18a"/>
      <path d="M123,276.25l11.25-3.84,3,20.25s-7.06,2.11-11.91,1.93Z" fill="#4c749f"/>
      <path d="M159.22,207.33c-2.61-.7-3.56-1.47-5.87-2.88-2.93,2.91-5.94,7.29-9,10.05-3.3,3-5-.4-9.17-4.08-2.94-2.65-5.42-5.21-7.89-6.23-4.86-2-8.6-1.46-13-1.77-7.48-.51-12.09-.62-16.5,3.19-4.8,4.14-8.7,14.78-9.45,17.18s-1.82,4.68-2.6,7.07c-1.17,3.56-1.87,6.69.44,9.93,1.38,1.93,11.11,9,13.82,10.71a32.45,32.45,0,0,1,2.44-3.85c-1,7.58-1.39,15.21-1.79,22.84q-.67,13.1-1.36,26.18c9.93,3.87,20.5,3.11,30.76,1.71.73-.1.4-18.79.4-18.79a99.67,99.67,0,0,1,4.52,18.2s5.09-.73,7.93-1.17q-2.16-17.25-5.73-34.3-1.81-8.56-4-17.06c-1.43-5.62-3.66-9.71-3-15.57a24.66,24.66,0,0,0,0-8.06c.62.4,2.77,1.5,3.37,1.88,3.26,2,7,3.67,10.92,3.19s6.15-4.19,8.38-7.07C155.68,215.07,156.64,211,159.22,207.33Zm-55.83,37.53c-1.7-1.86-8.44-10.14-9.51-11,2.81-3.84,6.41-8.66,7.53-13.26,1.22,4.15,2.54,7.14,3.34,11.41,0,0,.43,3.06.43,3.09C105,238.94,104,241.49,103.39,244.86Z" fill="#9bc5f2"/>
      <path d="M122.7,214.45c2.71-.61-2-9.78-3.47-11.86l-1.78-.05-1.48,0s-8.43-.49-11.07-.1C106,206.42,119.25,215.23,122.7,214.45Z" fill="#fff"/>
      <path d="M130.47,278a.14.14,0,0,1-.15-.13c-.11-1-2.71-24-4.11-30.43-1.3-6-1.24-12.11-1.19-18,0-1.11,0-2.2,0-3.28C125,218.8,123,215,123,215a.15.15,0,0,1,.06-.21.16.16,0,0,1,.22.06s2.11,3.9,2.11,11.36c0,1.08,0,2.17,0,3.28,0,5.91-.1,12,1.19,18,1.4,6.5,4,29.49,4.11,30.46a.15.15,0,0,1-.14.17Z" fill="#77b2f2"/>
      <path d="M108.06,194.92c-.15-1.39-.32-2.31-.32-2.31a3.29,3.29,0,0,0,2.66-2.45s1.67-11.57,5.61-12c4.67-.51,6.81.73,7.75,5.28a5.47,5.47,0,0,0,2.41,3.46.61.61,0,0,1-.44,1l-.69,0a.3.3,0,0,0-.26.3,14.64,14.64,0,0,1-.35,3.66c-.63,2.6-.29,5.29-4.78,5.24a15.12,15.12,0,0,1-1.53-.1,46.67,46.67,0,0,0,1.14,7.78c.11.49.2,1,.2,1-1.65,2.14-7,1.34-9.38-.8-.94-.86-2.37-2.21-2.31-2.49A25.34,25.34,0,0,0,108.06,194.92Z" fill="#ffa18a"/>
      <polygon fill="#44688f" points="145.41 206.66 151.64 212.07 184.92 173.91 178.69 168.48 145.41 206.66"/>
      <path d="M175.06,113.34a43.1,43.1,0,1,1,4.17,60.8A43.15,43.15,0,0,1,175.06,113.34Zm3.32,2.88a38.71,38.71,0,1,0,54.6-3.74A38.75,38.75,0,0,0,178.38,116.22Z" fill="#4c749f"/>
      <path d="M97.36,267.82h0a8.68,8.68,0,0,0,12.46-1.1L157,208.13a1.38,1.38,0,0,0-.17-1.9l-6.27-5.46a1.36,1.36,0,0,0-1.89.09L96.78,255.3A8.67,8.67,0,0,0,97.36,267.82Z" fill="#4c749f"/>
      <path d="M178.38,116.22a38.71,38.71,0,1,0,54.6-3.74A38.75,38.75,0,0,0,178.38,116.22Z" fill="#9bc5f2" opacity=".3"/>
      <path d="M204,109.24c-.1.22-1.82.48-2,.54a26.65,26.65,0,0,0-4.19,1.37,54.87,54.87,0,0,0-5.26,2.61c-7,4.66-12.47,10.8-15.05,19a41.66,41.66,0,0,0-1.53,12.45A50,50,0,0,0,178,155.35c.22.64.45,1.26.67,1.89.14.4-.34.84-.63.41-.29.12-2.4-4.3-2.58-4.71a31.39,31.39,0,0,1-1.48-21.1c2-7,6-12.44,11.42-17.1a40.25,40.25,0,0,1,8.16-4.59,25.15,25.15,0,0,1,6.83-1.75c1-.15,2.09-.19,3.11-.24.64,0,1.28.84.43,1.08Z" fill="#fff" opacity=".5" style="mix-blend-mode:screen"/>
      <path d="M110.06,259c.69-.47-.54-1.36-.83-1.66a8.19,8.19,0,0,1-1.68-3.11c.31.38.62.76.9,1.15a9.74,9.74,0,0,0,.72,1,6.78,6.78,0,0,0,1.06.88c.35.25.69.53,1,.75a.6.6,0,0,0,.64.09c.49-.33.13-1-.2-1.44a1,1,0,0,0,.62.07c.76-.17.19-.9,0-1.27-.73-1.12-1.46-2.24-2.14-3.41-.28-.48-.76-1.27-1-1.79s-.56-.9.35-.51a2.73,2.73,0,0,1,.47.28,5.35,5.35,0,0,0,.56.36c.37.18,1.23.35,1.23-.28,0-.35-.49-.81-.7-1a10.59,10.59,0,0,0-1.16-1.16,5.07,5.07,0,0,0-2.52-1,10.44,10.44,0,0,1-3.58-1.15,9.06,9.06,0,0,1-1.64-1.24,17.07,17.07,0,0,0-1.36-1.33s-2.5,3.81-2.93,4.74c2,.53,3,2.7,4.15,4.19a17.64,17.64,0,0,1,1.56,2.18,11.62,11.62,0,0,0,1.28,2.32,15.29,15.29,0,0,0,1.94,1.64c.22.18.72.62,1,.18s-.34-1-.5-1.27c-.05-.09-.12-.17-.17-.26.22.27.45.54.69.8C108.19,258.12,109.34,259.5,110.06,259Z" fill="#ffa18a"/>
      <polygon fill="#77b2f2" points="107.45 216.83 114.22 216.15 114.71 217.29 108.13 218.17 107.45 216.83"/>
      <path d="M104.09,245.35a11.41,11.41,0,0,0-2.5,2.37A14.15,14.15,0,0,0,100,250.5l-3.4-2.34,3.95-6.59Z" fill="#9bc5f2"/>
      <path d="M99.44,184a3.23,3.23,0,0,1,2.63-.49,8.9,8.9,0,0,1,.29-5.26,11.43,11.43,0,0,1,6.45-6.2c6.28-2.43,6.83.51,10.29.33,1.24-.06,2.34-.53,3.46.23a4.36,4.36,0,0,1,1.81,3.56c0,4.56-3.63,3.52-5.52,5.14a10.54,10.54,0,0,0-2.51,3.91c-.63,1.83-2.64,2.56-3.48,4.3s-1.17,4.61-2.69,6c-1.19,1.08-4,0-5-1.34a4.25,4.25,0,0,1-3.2.47c-1.73-.41-3.06-2.42-3.84-4.91C97.26,187,98.26,184.75,99.44,184Z" fill="#a55852"/>
      <path d="M335.16,269.83v-5.64H300.74v5.64a3.1,3.1,0,0,1-3.1,3.11h0a3.1,3.1,0,0,0-3.1,3.1v65.82a3.4,3.4,0,0,0,3.4,3.4h40a3.4,3.4,0,0,0,3.4-3.4V276a3.1,3.1,0,0,0-3.1-3.1h0A3.11,3.11,0,0,1,335.16,269.83Z" fill="#9bc5f2"/>
      <rect fill="#4c749f" height="10.77" rx="1.29" width="38.46" x="298.73" y="255.14"/>
      <path d="M299.54,273.45l36.36-.21a.32.32,0,0,0,0-.64l-36.36.21a.32.32,0,0,0,0,.64Z" fill="#77b2f2"/>
      <rect fill="#fff" height="23.14" opacity=".5" width="46.84" x="294.54" y="294.13"/>
      <rect fill="#77b2f2" height="1.44" width="46.84" x="294.54" y="294.13"/>
      <rect fill="#77b2f2" height="1.44" width="46.84" x="294.54" y="315.83"/>
      <path d="M325.6,300.76a.58.58,0,0,1-.62.5h-25.1a.52.52,0,1,1,0-1H325A.58.58,0,0,1,325.6,300.76Z" fill="#fff"/>
      <path d="M325.6,305.7a.58.58,0,0,1-.62.5h-25.1a.58.58,0,0,1-.62-.5.57.57,0,0,1,.62-.5H325A.57.57,0,0,1,325.6,305.7Z" fill="#fff"/>
      <path d="M313.27,311.15a.57.57,0,0,1-.63.5H299.88a.51.51,0,1,1,0-1h12.76A.57.57,0,0,1,313.27,311.15Z" fill="#fff"/>
      <g opacity=".8">
        <path d="M301.57,255.47v9.77a.32.32,0,0,0,.64,0v-9.77a.32.32,0,0,0-.64,0Z" fill="#345c86"/>
        <path d="M307.93,255.47v9.77a.31.31,0,0,0,.63,0v-9.77a.32.32,0,0,0-.63,0Z" fill="#345c86"/>
        <path d="M314.78,255.55v9.78a.32.32,0,0,0,.64,0v-9.78a.32.32,0,0,0-.64,0Z" fill="#345c86"/>
        <path d="M321.14,255.55v9.78a.32.32,0,0,0,.64,0v-9.78a.32.32,0,0,0-.64,0Z" fill="#345c86"/>
        <path d="M327.34,255.55v9.78a.32.32,0,0,0,.64,0v-9.78a.32.32,0,0,0-.64,0Z" fill="#345c86"/>
        <path d="M333.7,255.55v9.78a.32.32,0,0,0,.63,0v-9.78a.32.32,0,0,0-.63,0Z" fill="#345c86"/>
      </g>
      <path d="M309.44,351.52H280.35a2.05,2.05,0,0,1-2-1.87l-4.07-44.71h41.41l-4.17,44.72A2.05,2.05,0,0,1,309.44,351.52Z" fill="#ffe2b5"/>
      <path d="M274.05,298.92h41.79a1.36,1.36,0,0,1,1.36,1.36v4.84a1.36,1.36,0,0,1-1.36,1.36H274.05a1.37,1.37,0,0,1-1.37-1.37v-4.83A1.37,1.37,0,0,1,274.05,298.92Z" fill="#4c749f"/>
      <rect fill="#4c749f" height=".98" rx=".41" width="15.09" x="282.34" y="319.06"/>
      <rect fill="#4c749f" height=".98" rx=".41" width="15.09" x="282.34" y="324.12"/>
      <rect fill="#4c749f" height=".98" rx=".41" width="15.09" x="282.34" y="329.15"/>
      <rect fill="#4c749f" height=".99" rx=".41" width="15.09" x="282.34" y="333.97"/>
      <path d="M275.64,300.33v5.07a.13.13,0,0,0,.26,0v-5.07a.13.13,0,0,0-.26,0Z" fill="#9bc5f2"/>
      <path d="M278.59,300.33v5.07a.13.13,0,0,0,.26,0v-5.07a.13.13,0,0,0-.26,0Z" fill="#9bc5f2"/>
      <path d="M281.51,300.33v5.07a.13.13,0,0,0,.25,0v-5.07a.13.13,0,0,0-.25,0Z" fill="#9bc5f2"/>
      <path d="M284.45,300.33v5.07a.13.13,0,0,0,.26,0v-5.07a.13.13,0,0,0-.26,0Z" fill="#9bc5f2"/>
      <path d="M287.37,300.33v5.07a.13.13,0,0,0,.25,0v-5.07a.13.13,0,0,0-.25,0Z" fill="#9bc5f2"/>
      <path d="M290.31,300.33v5.07a.13.13,0,0,0,.26,0v-5.07a.13.13,0,0,0-.26,0Z" fill="#9bc5f2"/>
      <path d="M293.23,300.33v5.07a.13.13,0,0,0,.26,0v-5.07a.13.13,0,0,0-.26,0Z" fill="#9bc5f2"/>
      <path d="M296.18,300.33v5.07a.13.13,0,0,0,.26,0v-5.07a.13.13,0,0,0-.26,0Z" fill="#9bc5f2"/>
      <path d="M299.09,300.33v5.07a.13.13,0,0,0,.26,0v-5.07a.13.13,0,0,0-.26,0Z" fill="#9bc5f2"/>
      <path d="M302,300.33v5.07a.13.13,0,0,0,.26,0v-5.07a.13.13,0,0,0-.26,0Z" fill="#9bc5f2"/>
      <path d="M305,300.33v5.07a.13.13,0,0,0,.25,0v-5.07a.13.13,0,0,0-.25,0Z" fill="#9bc5f2"/>
      <path d="M307.9,300.33v5.07a.13.13,0,0,0,.26,0v-5.07a.13.13,0,0,0-.26,0Z" fill="#9bc5f2"/>
      <path d="M311.05,300.33v5.07a.13.13,0,0,0,.25,0v-5.07a.13.13,0,0,0-.25,0Z" fill="#9bc5f2"/>
      <path d="M314,300.33v5.07a.13.13,0,0,0,.26,0v-5.07a.13.13,0,0,0-.26,0Z" fill="#9bc5f2"/>
    </g>
  </g>
</svg>